<?xml version="1.0" standalone="no"?>
<!DOCTYPE svg PUBLIC "-//W3C//DTD SVG 20010904//EN"
 "http://www.w3.org/TR/2001/REC-SVG-20010904/DTD/svg10.dtd">
<svg version="1.0" xmlns="http://www.w3.org/2000/svg"
 width="1280.000000pt" height="781.000000pt" viewBox="0 0 1280.000000 781.000000"
 preserveAspectRatio="xMidYMid meet">

<g transform="translate(0.000000,781.000000) scale(0.100000,-0.100000)"
fill="#000000" stroke="none">
<path d="M8870 7741 c0 -4 10 -13 23 -18 32 -16 68 -23 61 -12 -3 5 -11 9 -17
9 -7 0 -24 7 -39 14 -16 8 -28 11 -28 7z"/>
<path d="M9015 7619 c-4 -6 -5 -12 -2 -15 2 -3 7 2 10 11 7 17 1 20 -8 4z"/>
<path d="M10390 7599 c-22 -18 -22 -19 -3 -10 12 6 25 16 28 21 9 15 3 12 -25
-11z"/>
<path d="M10337 7558 c-30 -48 -75 -138 -66 -133 9 6 89 155 83 155 -2 0 -10
-10 -17 -22z"/>
<path d="M10390 7515 c-7 -9 -11 -17 -9 -20 3 -2 10 5 17 15 14 24 10 26 -8 5z"/>
<path d="M10332 7410 c-18 -29 -15 -38 4 -12 9 13 14 25 12 27 -2 2 -9 -5 -16
-15z"/>
<path d="M10312 7350 c0 -14 2 -19 5 -12 2 6 2 18 0 25 -3 6 -5 1 -5 -13z"/>
<path d="M10227 7323 l-18 -38 20 25 c18 22 28 50 18 50 -2 0 -11 -17 -20 -37z"/>
<path d="M10270 7260 c-6 -11 -8 -20 -6 -20 3 0 10 9 16 20 6 11 8 20 6 20 -3
0 -10 -9 -16 -20z"/>
<path d="M9840 7030 c-8 -5 -10 -10 -5 -10 6 0 17 5 25 10 8 5 11 10 5 10 -5
0 -17 -5 -25 -10z"/>
<path d="M9775 6984 l-40 -36 43 32 c36 27 49 40 40 40 -2 0 -21 -16 -43 -36z"/>
<path d="M5180 6996 c0 -2 8 -10 18 -17 15 -13 16 -12 3 4 -13 16 -21 21 -21
13z"/>
<path d="M7095 6790 c3 -5 14 -10 23 -10 15 0 15 2 2 10 -20 13 -33 13 -25 0z"/>
<path d="M7060 6750 c8 -5 24 -10 34 -10 26 0 18 6 -19 14 -22 5 -26 4 -15 -4z"/>
<path d="M7509 6663 c-13 -16 -12 -17 4 -4 9 7 17 15 17 17 0 8 -8 3 -21 -13z"/>
<path d="M6625 6616 c-43 -12 -87 -35 -68 -36 6 0 15 5 19 11 4 6 19 8 37 5
17 -3 27 -3 24 1 -4 4 5 12 20 19 34 15 21 15 -32 0z"/>
<path d="M7464 6608 l-19 -23 23 19 c21 18 27 26 19 26 -2 0 -12 -10 -23 -22z"/>
<path d="M7496 6602 l-19 -27 24 22 c12 12 21 24 18 27 -2 2 -13 -8 -23 -22z"/>
<path d="M6688 6603 c12 -2 30 -2 40 0 9 3 -1 5 -23 4 -22 0 -30 -2 -17 -4z"/>
<path d="M6570 6569 c-17 -13 -18 -17 -5 -10 33 17 51 31 40 31 -5 0 -21 -10
-35 -21z"/>
<path d="M6830 6580 c20 -13 33 -13 25 0 -3 6 -14 10 -23 10 -15 0 -15 -2 -2
-10z"/>
<path d="M6918 6573 c7 -3 16 -2 19 1 4 3 -2 6 -13 5 -11 0 -14 -3 -6 -6z"/>
<path d="M7233 6573 c9 -2 25 -2 35 0 9 3 1 5 -18 5 -19 0 -27 -2 -17 -5z"/>
<path d="M7180 6560 c-8 -5 -10 -10 -5 -10 6 0 17 5 25 10 8 5 11 10 5 10 -5
0 -17 -5 -25 -10z"/>
<path d="M6444 6550 c-12 -5 -25 -13 -28 -19 -4 -6 6 -4 21 4 35 18 67 21 43
4 -12 -9 -12 -10 3 -5 10 3 28 6 39 6 30 0 19 6 -22 13 -19 3 -45 2 -56 -3z"/>
<path d="M6888 6553 c7 -3 16 -2 19 1 4 3 -2 6 -13 5 -11 0 -14 -3 -6 -6z"/>
<path d="M6970 6546 c0 -2 8 -10 18 -17 15 -13 16 -12 3 4 -13 16 -21 21 -21
13z"/>
<path d="M7028 6533 c7 -3 16 -2 19 1 4 3 -2 6 -13 5 -11 0 -14 -3 -6 -6z"/>
<path d="M7068 6533 c7 -3 16 -2 19 1 4 3 -2 6 -13 5 -11 0 -14 -3 -6 -6z"/>
<path d="M8646 6492 l-19 -27 24 22 c12 12 21 24 18 27 -2 2 -13 -8 -23 -22z"/>
<path d="M6338 6493 c12 -2 30 -2 40 0 9 3 -1 5 -23 4 -22 0 -30 -2 -17 -4z"/>
<path d="M6128 6412 c-16 -9 -28 -20 -28 -24 0 -12 3 -10 40 17 38 28 29 33
-12 7z"/>
<path d="M8636 6395 c-9 -26 -7 -32 5 -12 6 10 9 21 6 23 -2 3 -7 -2 -11 -11z"/>
<path d="M9965 6379 c-4 -6 -5 -12 -2 -15 2 -3 7 2 10 11 7 17 1 20 -8 4z"/>
<path d="M5305 6350 c-18 -20 -17 -20 26 -19 37 0 40 2 21 10 -13 5 -20 13
-17 19 11 18 -11 11 -30 -10z"/>
<path d="M5356 6359 c6 -11 35 -11 51 -1 8 5 -1 8 -22 9 -19 1 -32 -3 -29 -8z"/>
<path d="M5225 6350 l-30 -8 27 -1 c15 0 30 4 33 9 3 6 5 9 3 9 -2 -1 -16 -5
-33 -9z"/>
<path d="M5445 6330 c-4 -6 9 -10 31 -10 42 0 42 4 2 14 -15 3 -30 2 -33 -4z"/>
<path d="M5548 6333 c18 -2 45 -2 60 0 15 2 0 4 -33 4 -33 0 -45 -2 -27 -4z"/>
<path d="M4822 6280 c-101 -24 -118 -35 -131 -84 -14 -52 -51 -118 -71 -124
-13 -4 -13 -3 0 14 21 25 46 81 55 122 7 32 6 33 -22 26 -73 -17 -78 -24 -80
-99 0 -39 -2 -85 -2 -104 -1 -19 -4 -31 -8 -28 -3 4 -6 52 -5 108 l0 100 -31
-7 c-18 -3 -35 -8 -39 -11 -5 -2 -8 -94 -8 -203 0 -147 -3 -202 -12 -209 -7
-6 -26 -22 -43 -36 l-30 -26 40 25 c65 40 76 53 69 82 -9 35 29 164 48 164 10
0 3 -48 -14 -92 -9 -25 -7 -31 21 -57 17 -16 41 -31 54 -35 22 -5 53 -50 49
-69 -2 -5 2 -25 7 -45 5 -20 12 -50 15 -67 6 -30 6 -30 -13 5 -10 19 -24 59
-31 88 -9 38 -20 58 -39 70 -14 9 -30 22 -34 29 -10 17 -29 17 -25 1 3 -16
-18 -56 -45 -86 -19 -20 -21 -33 -18 -108 2 -75 6 -88 28 -112 14 -15 34 -46
45 -69 23 -51 53 -58 69 -16 14 38 50 95 56 89 10 -10 -52 -125 -73 -135 -16
-7 -21 -16 -18 -33 l5 -23 -11 23 -10 23 -40 -21 c-46 -23 -45 -23 -24 -44 21
-22 70 -20 83 2 8 12 9 1 5 -43 -6 -69 3 -89 43 -91 23 -1 28 -5 28 -27 1 -15
8 -35 17 -44 14 -14 18 -14 31 -2 27 28 42 85 29 114 -31 67 -6 188 51 252 20
22 20 24 2 42 -21 24 -14 80 14 105 10 9 19 31 20 49 1 17 5 59 9 92 6 55 10
61 39 76 18 9 40 22 48 29 20 17 58 16 103 -2 55 -23 106 -38 126 -38 9 0 27
-6 39 -12 12 -7 45 -20 72 -30 l50 -17 -50 6 c-27 3 -59 12 -70 19 -11 8 -33
14 -50 14 -16 0 -57 12 -90 25 -77 32 -104 31 -147 -2 -35 -27 -36 -31 -42
-113 -5 -63 -13 -95 -31 -123 -22 -37 -22 -40 -6 -68 15 -27 15 -31 -8 -73
-13 -25 -21 -52 -17 -61 3 -9 2 -14 -3 -11 -4 3 -16 -3 -25 -12 -12 -15 -15
-33 -11 -91 3 -40 7 -76 9 -79 2 -4 0 -31 -6 -61 -7 -43 -6 -56 6 -70 17 -18
40 -103 34 -123 -6 -18 61 -81 91 -85 118 -14 156 -13 182 6 21 15 36 19 65
14 22 -3 45 -10 52 -16 8 -6 152 -10 387 -11 l374 -1 -31 33 c-18 17 -39 32
-48 32 -8 0 -27 11 -41 24 -14 13 -36 27 -49 31 -21 7 -59 35 -47 35 14 0 77
-32 106 -54 19 -14 41 -26 47 -26 18 0 74 -62 74 -81 0 -9 -7 -22 -15 -29 -21
-17 -19 -27 7 -33 15 -4 30 1 44 14 11 11 28 17 36 14 9 -4 30 10 56 36 40 42
41 43 27 76 -12 28 -12 39 2 78 19 56 29 53 12 -3 -9 -31 -9 -48 1 -76 10 -32
10 -40 -4 -55 -22 -25 -21 -28 20 -35 25 -5 43 -3 59 8 14 9 33 16 44 16 27 0
51 10 51 22 0 13 82 87 96 88 16 0 24 24 24 70 0 32 7 46 35 75 20 19 40 35
45 35 6 0 19 20 31 44 11 24 30 52 41 63 23 19 23 19 2 -31 -9 -24 29 -27 71
-6 22 11 47 20 57 20 9 0 20 5 23 10 3 6 13 10 22 10 24 0 -26 -36 -78 -56
-24 -9 -61 -16 -81 -16 -27 1 -38 -3 -38 -13 0 -8 -12 -25 -26 -37 -70 -62
-81 -77 -77 -102 5 -22 7 -23 36 -14 18 6 52 13 77 17 61 10 118 42 159 91 19
22 42 40 52 40 9 0 22 7 29 15 7 8 21 15 30 15 10 0 31 11 47 24 16 14 50 36
76 49 43 23 49 24 86 11 31 -10 47 -11 73 -2 68 23 102 61 139 153 13 31 21
39 38 37 20 -3 76 29 94 53 4 5 12 29 18 53 10 38 29 67 29 44 0 -24 -32 -113
-46 -127 -9 -9 -14 -18 -11 -22 12 -11 57 47 57 74 0 15 5 35 10 43 6 10 8 -3
4 -40 -9 -83 -22 -97 -96 -107 l-63 -8 -38 -70 c-20 -38 -45 -77 -53 -86 -22
-24 -103 -42 -156 -34 -49 7 -92 -6 -128 -40 -14 -12 -49 -36 -78 -51 -28 -15
-64 -41 -79 -56 l-27 -28 30 0 c16 0 40 -9 54 -20 29 -23 51 -25 68 -8 10 10
14 8 18 -10 4 -12 10 -22 14 -22 4 0 13 -14 20 -31 18 -43 50 -62 93 -54 25 5
46 1 76 -14 41 -21 42 -21 92 -4 47 17 51 17 80 1 36 -21 50 -17 73 22 9 16
34 42 54 57 20 16 45 38 55 51 10 12 24 22 31 22 14 0 56 42 56 56 0 5 20 29
44 53 35 35 45 53 51 90 5 33 16 56 40 81 20 22 35 50 40 75 3 22 18 52 32 67
20 21 24 33 20 58 -8 37 15 143 38 173 8 12 33 48 55 80 38 57 52 68 180 133
25 12 59 41 75 64 34 46 92 81 123 74 27 -8 59 11 77 45 9 18 28 34 49 41 18
6 42 20 52 32 19 21 19 21 -1 12 -11 -5 -146 -8 -302 -7 l-283 3 0 -25 c0 -13
-5 -27 -11 -30 -6 -4 -10 -1 -8 6 6 51 2 54 -74 57 -39 1 -252 9 -472 17 -220
8 -433 16 -474 17 l-74 3 -9 -31 c-4 -17 -15 -37 -23 -44 -27 -23 -16 -28 63
-26 80 1 109 -8 144 -49 10 -11 20 -29 24 -41 3 -12 20 -28 39 -37 27 -13 34
-23 40 -56 7 -45 15 -54 67 -70 37 -12 58 -46 58 -93 0 -10 7 -21 15 -24 15
-6 69 -95 57 -93 -18 2 -102 121 -102 144 0 22 -8 30 -50 47 -34 14 -52 28
-55 42 -2 12 -6 33 -9 47 -4 17 -16 31 -37 39 -20 9 -35 25 -45 50 -20 49 -51
62 -151 65 l-82 2 -6 -28 c-4 -16 -4 -32 -2 -36 9 -15 -21 -183 -37 -208 -24
-36 -26 -31 -10 23 8 26 17 94 20 150 6 117 -6 152 -51 152 -13 0 -30 6 -37
14 -8 7 -28 21 -45 29 -17 9 -33 23 -36 32 -5 12 -23 15 -84 15 -43 0 -94 -5
-114 -10 -33 -9 -123 -73 -185 -130 -16 -15 -36 -20 -77 -20 -74 0 -90 -6 -76
-31 8 -16 21 -19 77 -19 65 0 70 -2 102 -35 19 -20 44 -35 57 -35 13 0 23 -4
23 -10 0 -25 -70 1 -104 39 -15 17 -30 20 -84 19 -58 -1 -68 2 -86 24 -20 23
-24 24 -83 15 -35 -5 -63 -13 -63 -17 0 -5 -16 -12 -35 -16 -34 -6 -58 -28
-138 -129 -37 -46 -81 -48 -129 -7 -18 16 -49 32 -69 35 -31 5 -41 1 -65 -24
-15 -16 -30 -27 -33 -24 -2 3 11 21 29 40 44 46 88 47 144 5 49 -37 70 -38 93
-4 57 82 132 138 226 168 18 6 17 7 -3 33 -11 16 -29 38 -38 51 -16 20 -21 21
-72 13 -30 -5 -59 -10 -65 -12 -11 -3 -101 10 -124 17 -33 11 0 13 55 4 42 -8
77 -7 121 2 74 14 103 4 120 -43 17 -43 55 -54 125 -35 32 9 76 16 99 16 35 0
51 8 115 61 41 33 74 62 74 63 0 2 -43 4 -97 5 -53 1 -99 4 -103 6 -3 2 -84 6
-180 9 -96 3 -223 9 -283 12 -118 7 -118 7 -79 -53 8 -13 10 -23 6 -23 -5 0
-20 18 -33 39 l-25 39 -165 6 c-91 3 -206 8 -256 9 -61 3 -113 -2 -163 -13z
m3008 -174 c0 -3 -4 -8 -10 -11 -5 -3 -10 -1 -10 4 0 6 5 11 10 11 6 0 10 -2
10 -4z m-75 -26 c4 -6 -7 -10 -27 -9 -27 0 -30 2 -13 9 27 12 33 12 40 0z m61
-42 c-9 -5 -23 -22 -31 -38 -26 -51 -99 -75 -147 -49 -18 10 -24 8 -38 -11 -9
-12 -35 -30 -58 -40 -23 -11 -42 -25 -42 -32 0 -8 -22 -18 -50 -25 -89 -21
-105 -33 -108 -80 -2 -31 -8 -44 -23 -48 -14 -5 -19 -16 -19 -46 0 -45 -12
-50 -28 -13 -7 15 -8 23 -2 19 5 -3 14 5 20 20 5 14 17 28 25 31 10 4 15 20
15 54 l0 48 47 16 c26 9 54 16 63 16 9 0 32 14 50 30 18 17 39 30 46 30 7 0
26 12 44 26 24 21 38 25 63 21 44 -7 82 1 100 22 66 73 81 85 85 72 3 -8 -3
-18 -12 -23z m21 -50 c-3 -8 -6 -5 -6 6 -1 11 2 17 5 13 3 -3 4 -12 1 -19z
m-1581 -54 c9 -19 26 -42 38 -50 83 -58 100 -65 166 -69 37 -3 78 -9 91 -14
16 -7 -7 -8 -71 -4 -79 5 -100 10 -127 29 -17 13 -36 24 -40 24 -5 0 -22 13
-38 30 l-28 29 -43 -35 c-27 -23 -45 -47 -50 -67 -3 -18 -17 -45 -31 -61 -21
-25 -23 -35 -18 -77 8 -63 -13 -99 -60 -99 -19 0 -39 -8 -50 -20 -12 -13 -31
-20 -54 -20 -44 0 -66 -14 -122 -81 -34 -41 -42 -58 -41 -87 1 -20 -8 -55 -18
-77 -23 -47 -26 -34 -6 23 8 22 12 50 9 61 -6 24 23 69 84 129 33 32 51 42 76
42 17 0 43 9 57 20 14 11 37 20 52 20 39 0 58 33 58 101 0 46 5 63 24 86 13
16 26 40 28 53 2 14 17 34 38 48 47 31 60 60 35 75 -20 11 -18 12 22 26 1 1
10 -15 19 -35z m1583 -36 c-1 -13 -5 -36 -9 -53 -7 -26 -8 -22 -9 23 0 29 3
52 9 52 6 0 9 -10 9 -22z m-299 -222 c0 -2 -9 -6 -20 -9 -11 -3 -20 -1 -20 4
0 5 9 9 20 9 11 0 20 -2 20 -4z m43 -3 c-7 -2 -19 -2 -25 0 -7 3 -2 5 12 5 14
0 19 -2 13 -5z m64 -9 c-3 -3 -12 -4 -19 -1 -8 3 -5 6 6 6 11 1 17 -2 13 -5z
m-164 -39 c-3 -9 -8 -14 -10 -11 -3 3 -2 9 2 15 9 16 15 13 8 -4z m-218 -60
c0 -46 -13 -61 -22 -25 -9 32 -73 23 -92 -13 -11 -21 -11 -21 -5 3 8 29 21 40
50 40 12 0 31 9 44 20 13 11 23 20 24 20 1 0 1 -20 1 -45z m-401 -22 c7 -16
17 -42 20 -60 4 -17 14 -37 22 -44 8 -7 20 -22 25 -33 6 -12 -4 -5 -21 14 -17
19 -36 53 -42 75 -6 22 -18 48 -26 58 -10 10 -11 17 -4 17 6 0 18 -12 26 -27z
m115 -177 c19 -20 20 -24 6 -30 -9 -3 -14 -2 -11 3 3 5 -1 14 -9 21 -13 11
-21 30 -12 30 2 0 14 -11 26 -24z m-2102 -36 c-14 -24 -23 -25 -31 -5 -3 8 2
19 12 24 24 13 34 3 19 -19z m513 20 c8 -5 12 -11 9 -14 -3 -3 -14 1 -25 9
-21 16 -8 20 16 5z m610 -35 c0 -5 -5 -3 -10 5 -5 8 -10 20 -10 25 0 6 5 3 10
-5 5 -8 10 -19 10 -25z m-562 -21 c-4 -3 -12 5 -18 18 -12 22 -12 22 6 6 10
-10 15 -20 12 -24z m106 -83 c11 -12 15 -21 9 -21 -5 0 -18 9 -27 19 -10 11
-28 22 -41 25 -12 3 -25 13 -29 21 -4 12 1 12 32 -4 20 -10 46 -28 56 -40z
m576 -21 c0 -5 -2 -10 -4 -10 -3 0 -8 5 -11 10 -3 6 -1 10 4 10 6 0 11 -4 11
-10z m-517 -57 c-4 -10 10 -30 40 -58 28 -25 47 -52 47 -64 0 -15 7 -21 23
-22 17 -1 18 -2 4 -6 -23 -6 -47 14 -47 38 0 10 -16 30 -35 45 -19 15 -38 38
-41 53 -3 14 -8 35 -10 46 -5 19 -4 19 10 2 8 -11 12 -26 9 -34z m582 27 c3
-5 -3 -10 -14 -10 -11 0 -23 5 -26 10 -3 6 3 10 14 10 11 0 23 -4 26 -10z
m-10 -80 c-9 -18 -19 -30 -21 -27 -3 2 3 18 13 35 23 40 29 33 8 -8z m860
-140 c3 -5 2 -10 -4 -10 -5 0 -13 5 -16 10 -3 6 -2 10 4 10 5 0 13 -4 16 -10z"/>
<path d="M8657 6260 c18 -4 39 -11 46 -16 7 -5 4 -1 -6 9 -11 9 -31 17 -46 16
-24 -1 -23 -2 6 -9z"/>
<path d="M6519 6223 c13 -26 55 -53 80 -53 11 0 28 -11 39 -25 24 -30 32 -31
32 -6 0 10 7 24 15 31 16 13 20 46 8 53 -5 3 -48 8 -97 12 -86 7 -88 7 -77
-12z"/>
<path d="M8744 6206 c11 -9 24 -16 30 -16 12 0 7 5 -24 19 -24 11 -24 11 -6
-3z"/>
<path d="M9871 6184 c0 -11 3 -14 6 -6 3 7 2 16 -1 19 -3 4 -6 -2 -5 -13z"/>
<path d="M9911 6150 c0 -8 4 -22 9 -30 12 -18 12 -2 0 25 -6 13 -9 15 -9 5z"/>
<path d="M8473 6123 c-15 -5 -17 -23 -4 -23 5 0 11 7 15 15 3 8 4 15 3 14 -1
0 -8 -3 -14 -6z"/>
<path d="M9892 6095 c0 -16 2 -22 5 -12 2 9 2 23 0 30 -3 6 -5 -1 -5 -18z"/>
<path d="M8402 6083 c-12 -2 -29 -17 -37 -33 -8 -16 -21 -33 -29 -37 -20 -12
-9 -65 19 -85 l23 -17 6 79 c5 58 11 80 21 80 8 0 17 5 20 10 3 6 5 9 3 9 -2
-1 -13 -4 -26 -6z"/>
<path d="M9915 6050 c-4 -17 -5 -34 -2 -36 2 -3 7 10 11 27 3 18 4 34 2 36 -2
3 -7 -10 -11 -27z"/>
<path d="M9168 6053 c6 -2 18 -2 25 0 6 3 1 5 -13 5 -14 0 -19 -2 -12 -5z"/>
<path d="M9108 6043 c7 -3 16 -2 19 1 4 3 -2 6 -13 5 -11 0 -14 -3 -6 -6z"/>
<path d="M9876 6013 c-6 -14 -5 -15 5 -6 7 7 10 15 7 18 -3 3 -9 -2 -12 -12z"/>
<path d="M8235 5998 c-10 -6 -46 -39 -80 -72 -33 -34 -89 -77 -125 -97 l-65
-36 -19 -94 -18 -94 31 -65 c29 -59 31 -69 21 -108 -6 -27 -7 -49 -1 -60 13
-25 -3 -99 -28 -126 -11 -12 -21 -32 -21 -44 0 -11 -4 -24 -10 -27 -15 -10
-12 -73 6 -111 13 -28 14 -40 5 -60 -13 -29 -6 -47 33 -83 21 -19 26 -21 26
-8 0 17 145 273 161 282 5 4 9 13 9 21 0 8 8 24 18 35 10 10 48 69 83 130 35
61 76 130 92 154 27 43 28 43 25 201 l-3 159 -19 -55 c-10 -30 -29 -71 -43
-91 l-24 -36 22 -37 c50 -86 44 -148 -18 -175 -15 -7 -39 -26 -51 -42 -20 -24
-22 -32 -12 -45 11 -12 10 -13 -3 -8 -9 3 -30 -1 -48 -10 -28 -14 -30 -14 -25
0 3 9 6 21 6 26 0 6 3 8 6 5 10 -9 56 29 75 61 8 15 25 28 36 30 39 6 54 33
42 78 -6 21 -20 51 -30 66 -26 36 -24 62 10 108 15 21 34 60 41 86 13 44 12
47 -9 63 -14 11 -23 28 -23 49 -1 19 -6 32 -14 32 -7 0 -18 2 -26 5 -7 2 -22
-1 -33 -7z m-114 -539 c23 -19 23 -20 2 -10 -12 6 -31 11 -42 11 -12 0 -21 5
-21 10 0 17 37 11 61 -11z"/>
<path d="M9836 5933 c-6 -14 -5 -15 5 -6 7 7 10 15 7 18 -3 3 -9 -2 -12 -12z"/>
<path d="M9370 5900 c8 -5 20 -10 25 -10 6 0 3 5 -5 10 -8 5 -19 10 -25 10 -5
0 -3 -5 5 -10z"/>
<path d="M9690 5903 c-8 -2 -21 -7 -29 -9 -8 -2 -12 -7 -9 -9 3 -3 22 1 44 9
35 13 30 21 -6 9z"/>
<path d="M9448 5883 c6 -2 18 -2 25 0 6 3 1 5 -13 5 -14 0 -19 -2 -12 -5z"/>
<path d="M9510 5882 c0 -13 47 -28 57 -18 4 3 -3 6 -13 6 -11 0 -25 5 -32 12
-9 9 -12 9 -12 0z"/>
<path d="M9806 5870 c-17 -6 -18 -7 -3 -13 9 -3 19 -2 23 4 9 15 2 18 -20 9z"/>
<path d="M9420 5856 c0 -2 7 -6 15 -10 8 -3 15 -1 15 4 0 6 -7 10 -15 10 -8 0
-15 -2 -15 -4z"/>
<path d="M9888 5853 c7 -3 16 -2 19 1 4 3 -2 6 -13 5 -11 0 -14 -3 -6 -6z"/>
<path d="M9928 5853 c6 -2 18 -2 25 0 6 3 1 5 -13 5 -14 0 -19 -2 -12 -5z"/>
<path d="M10073 5829 c20 -11 37 -24 37 -29 0 -6 5 -10 11 -10 17 0 -10 29
-42 46 -16 8 -32 14 -36 14 -4 -1 9 -10 30 -21z"/>
<path d="M9830 5819 c0 -5 5 -7 10 -4 6 3 10 8 10 11 0 2 -4 4 -10 4 -5 0 -10
-5 -10 -11z"/>
<path d="M9811 5750 c0 -8 4 -22 9 -30 12 -18 12 -2 0 25 -6 13 -9 15 -9 5z"/>
<path d="M10373 5747 c0 -9 10 -12 29 -9 15 2 28 8 28 13 0 5 -13 9 -28 9 -17
0 -29 -5 -29 -13z"/>
<path d="M10448 5753 c6 -2 12 -9 12 -14 0 -6 -5 -7 -12 -3 -7 4 -8 3 -4 -4 4
-6 14 -8 23 -5 11 4 14 3 9 -5 -5 -8 -2 -10 9 -6 8 4 23 0 32 -7 13 -11 17
-11 20 -2 3 8 14 11 29 7 14 -4 24 -2 24 5 0 6 -20 9 -49 8 -35 -1 -54 3 -68
16 -11 9 -24 17 -29 16 -5 0 -3 -3 4 -6z"/>
<path d="M10324 5728 l-19 -23 25 20 c14 11 27 21 29 22 2 2 0 3 -6 3 -5 0
-18 -10 -29 -22z"/>
<path d="M9791 5714 c0 -11 3 -14 6 -6 3 7 2 16 -1 19 -3 4 -6 -2 -5 -13z"/>
<path d="M9900 5725 c0 -5 5 -17 10 -25 5 -8 10 -10 10 -5 0 6 -5 17 -10 25
-5 8 -10 11 -10 5z"/>
<path d="M7870 5678 c-23 -35 -33 -77 -34 -145 -2 -53 -6 -67 -28 -90 -15 -16
-31 -48 -37 -73 -6 -26 -20 -53 -34 -65 -30 -25 -47 -56 -47 -88 0 -13 -8 -35
-18 -48 -16 -22 -52 -106 -67 -156 -3 -13 -25 -32 -52 -45 -25 -12 -56 -36
-69 -53 -13 -16 -29 -36 -35 -42 -5 -7 -25 -13 -43 -13 -52 0 -117 -34 -146
-76 -17 -26 -38 -42 -67 -52 -26 -8 -43 -20 -43 -29 0 -8 -12 -38 -27 -67 -29
-55 -44 -144 -43 -243 1 -65 -20 -114 -70 -158 -26 -23 -50 -77 -51 -114 0
-14 -4 -35 -9 -46 -13 -29 -1 72 12 110 6 17 25 46 42 65 50 56 57 77 55 143
-2 34 1 70 7 79 5 9 7 39 5 65 -5 46 -5 47 -10 14 -7 -42 -45 -68 -115 -77
-42 -6 -56 -15 -115 -75 -38 -38 -75 -69 -84 -69 -8 0 -19 -10 -22 -22 -4 -13
-23 -47 -42 -76 -32 -49 -36 -52 -67 -47 -26 5 -39 1 -67 -22 -19 -15 -38 -33
-42 -40 -4 -7 -14 -13 -22 -13 -18 0 -51 -47 -59 -85 -4 -16 -19 -48 -34 -70
-22 -32 -36 -41 -67 -47 -22 -3 -51 -9 -65 -12 -22 -6 -23 -6 -4 3 12 5 25 14
29 20 3 6 21 11 39 11 41 0 48 9 77 85 12 33 31 71 43 84 l21 24 -35 -6 -35
-6 28 15 c31 17 32 24 13 67 -7 18 -18 44 -24 60 -11 27 -35 36 -47 17 -8 -13
-74 -44 -81 -38 -3 3 13 13 36 22 44 18 46 23 25 81 -8 22 -14 63 -15 90 0 28
-4 67 -9 88 -9 38 1 60 14 29 4 -9 10 -59 14 -110 8 -91 9 -95 43 -126 19 -18
48 -60 63 -94 30 -66 36 -68 87 -26 35 29 67 39 80 26 15 -15 38 -3 38 18 0
10 7 23 14 30 8 6 20 27 26 46 7 20 23 40 38 48 15 8 52 40 82 72 43 45 63 59
96 65 24 5 59 15 78 23 29 12 36 20 36 43 0 31 22 68 55 95 12 9 27 35 34 57
12 42 42 71 74 71 12 0 24 13 34 40 9 22 22 40 30 40 7 0 13 5 13 10 0 20 -32
23 -66 6 -44 -20 -64 -20 -94 2 -16 11 -44 17 -77 17 -58 0 -84 17 -110 72
-12 26 -21 33 -45 33 -16 0 -44 12 -63 26 -34 26 -51 26 -100 3 -11 -5 -54
-22 -95 -38 -69 -26 -77 -32 -101 -75 -14 -26 -35 -56 -46 -67 -21 -21 -124
-53 -133 -41 -9 12 -110 15 -110 3 0 -21 -50 -32 -87 -20 -28 9 -37 8 -51 -5
-10 -8 -35 -21 -57 -28 -37 -12 -40 -16 -40 -50 0 -25 -7 -43 -22 -58 -27 -24
-26 -23 -12 -107 10 -55 9 -66 -5 -82 -9 -10 -16 -35 -16 -60 0 -57 -29 -107
-91 -155 -48 -37 -49 -39 -30 -52 10 -8 25 -12 33 -9 7 3 27 1 43 -4 l30 -9
-39 -1 c-30 -1 -37 -4 -32 -17 3 -9 6 -18 6 -21 0 -4 9 2 19 11 10 10 34 18
52 18 40 1 120 -19 133 -33 6 -5 24 -9 41 -9 22 0 40 -9 60 -30 16 -17 24 -30
18 -30 -5 0 -18 9 -27 19 -10 11 -36 21 -59 24 -23 3 -57 9 -74 12 -31 7 -33
5 -33 -19 0 -14 5 -45 12 -69 9 -37 8 -51 -10 -105 -12 -34 -22 -73 -22 -86 0
-13 -7 -30 -17 -37 -9 -8 -22 -28 -30 -46 -16 -39 -16 -46 -3 -38 6 3 10 0 10
-7 0 -8 -15 -18 -32 -23 -21 -6 -34 -18 -37 -30 -2 -11 -8 -31 -14 -45 -6 -14
-9 -64 -8 -111 3 -81 1 -88 -20 -103 -13 -9 -35 -16 -49 -16 -14 0 -35 -3 -48
-6 -24 -7 -78 -79 -88 -119 -8 -31 -49 -40 -151 -32 l-75 6 -15 -36 c-19 -47
-6 -77 41 -97 19 -8 51 -30 71 -49 34 -32 42 -35 84 -32 37 3 52 10 76 38 38
42 130 65 196 47 46 -13 57 -7 90 46 11 19 25 34 31 34 5 0 22 9 37 19 30 22
136 61 164 61 10 0 32 7 48 16 17 8 33 13 36 10 8 -7 -68 -43 -108 -51 -72
-13 -80 -29 -89 -158 -8 -108 -7 -120 14 -172 13 -30 26 -58 30 -62 10 -10 7
-62 -4 -84 -11 -20 -1 -47 45 -115 14 -20 25 -49 25 -64 0 -27 39 -89 78 -123
20 -18 20 -18 32 18 13 40 69 76 160 104 19 6 25 9 12 7 -12 -2 -20 0 -16 5 3
5 13 9 23 9 10 0 27 12 37 27 24 38 84 93 100 93 10 0 63 43 64 53 10 65 10
147 0 178 -11 33 -11 45 4 82 19 50 42 65 106 69 l45 4 6 69 c3 39 6 111 5
160 -1 84 -2 90 -21 87 -11 -2 -49 -6 -83 -9 -55 -5 -68 -2 -92 16 -33 24
-121 28 -199 10 -24 -5 -46 -8 -48 -5 -12 12 60 34 132 40 71 6 84 5 105 -12
33 -26 85 -36 118 -24 15 6 39 13 55 16 l27 6 -6 73 c-8 99 -52 195 -105 228
-22 13 -39 27 -39 31 0 4 -16 12 -35 19 -33 12 -35 15 -35 60 0 29 -7 55 -18
70 -10 13 -23 36 -30 52 -6 15 -16 27 -22 27 -5 0 -10 5 -10 10 0 22 38 -15
69 -66 19 -32 31 -66 31 -88 0 -26 6 -38 24 -48 44 -25 110 -79 128 -106 10
-15 30 -51 44 -79 28 -56 21 -52 141 -83 29 -7 36 -4 80 37 49 45 152 113 172
113 5 0 21 14 33 31 13 17 45 47 71 66 40 30 48 40 44 61 -4 21 7 50 53 142 4
8 16 16 28 18 27 4 33 22 39 122 4 61 1 97 -10 129 -13 38 -14 48 -1 83 16 47
19 154 3 163 -14 9 14 40 55 61 17 9 57 20 88 24 33 5 68 16 84 29 15 12 41
21 60 21 26 0 43 10 77 45 25 25 50 45 56 45 8 0 10 15 5 51 -5 34 -3 58 7 75
11 21 11 31 -3 67 -11 31 -12 48 -5 65 7 16 6 29 -4 48 -27 52 -10 174 30 212
24 22 25 30 26 115 1 83 -2 97 -27 144 -22 41 -28 66 -28 113 0 65 -7 73 -30
38z m-875 -939 c12 -19 -5 -23 -22 -6 -16 16 -16 17 -1 17 9 0 20 -5 23 -11z
m528 -14 c-3 -9 -8 -14 -10 -11 -3 3 -2 9 2 15 9 16 15 13 8 -4z m-393 -492
c0 -26 -2 -44 -4 -42 -8 9 -13 98 -5 93 5 -3 9 -26 9 -51z m-870 -3 c-20 -13
-43 -13 -35 0 3 6 16 10 28 10 18 0 19 -2 7 -10z m887 -97 c-3 -10 -5 -4 -5
12 0 17 2 24 5 18 2 -7 2 -21 0 -30z m5 -65 c3 -18 9 -42 13 -53 6 -14 5 -17
-3 -10 -14 12 -33 95 -22 95 4 0 10 -15 12 -32z m-632 -21 c0 -6 -9 -1 -20 11
-11 12 -20 24 -20 28 0 4 9 -1 20 -11 11 -10 20 -23 20 -28z m414 -12 c-4 -8
-11 -15 -16 -15 -6 0 -5 6 2 15 7 8 14 15 16 15 2 0 1 -7 -2 -15z m-699 -162
c3 -16 10 -42 15 -59 6 -17 10 -35 10 -41 0 -11 81 -135 106 -164 8 -8 14 -21
14 -28 0 -7 -14 4 -30 25 -65 83 -97 141 -111 203 -7 35 -19 66 -26 68 -7 3
-10 9 -7 14 10 17 24 9 29 -18z m-88 -29 c-3 -3 -12 -4 -19 -1 -8 3 -5 6 6 6
11 1 17 -2 13 -5z m-76 -34 c-13 -11 -31 -20 -40 -20 -9 1 0 9 19 19 46 24 50
25 21 1z m-101 -119 c0 -11 11 -32 24 -48 13 -15 30 -42 39 -58 8 -17 37 -46
64 -64 50 -35 151 -151 114 -132 -11 6 -32 27 -47 47 -15 19 -51 51 -80 70
-29 20 -56 45 -60 57 -4 12 -19 38 -35 57 -31 39 -48 90 -30 90 6 0 11 -9 11
-19z m-290 -591 c0 -5 -2 -10 -4 -10 -3 0 -8 5 -11 10 -3 6 -1 10 4 10 6 0 11
-4 11 -10z"/>
<path d="M10248 5688 c5 -5 16 -8 23 -6 8 3 3 7 -10 11 -17 4 -21 3 -13 -5z"/>
<path d="M10299 5683 c-13 -16 -12 -17 4 -4 9 7 17 15 17 17 0 8 -8 3 -21 -13z"/>
<path d="M10717 5679 c7 -7 15 -10 18 -7 3 3 -2 9 -12 12 -14 6 -15 5 -6 -5z"/>
<path d="M9270 5660 c0 -5 7 -10 15 -10 8 0 15 5 15 10 0 6 -7 10 -15 10 -8 0
-15 -4 -15 -10z"/>
<path d="M9940 5651 c14 -12 34 -27 45 -33 17 -9 18 -9 8 3 -6 8 -26 22 -45
32 l-33 19 25 -21z"/>
<path d="M4195 5591 c-11 -5 -42 -11 -69 -15 -38 -6 -59 -17 -95 -50 -25 -23
-80 -62 -121 -86 -98 -57 -108 -66 -121 -111 -7 -20 -29 -60 -50 -88 -21 -28
-35 -51 -30 -51 15 0 88 104 95 135 10 39 30 61 80 85 57 28 105 62 147 105
29 30 47 39 105 50 78 15 133 34 99 34 -11 0 -29 -4 -40 -8z"/>
<path d="M4478 5437 c-1 -48 -2 -87 -2 -87 10 0 74 32 78 39 8 12 -18 70 -48
106 l-24 30 -4 -88z"/>
<path d="M4330 5417 c0 -13 41 -89 46 -84 2 2 -7 24 -21 48 -13 24 -25 40 -25
36z"/>
<path d="M9810 5406 c0 -8 4 -17 9 -20 5 -4 7 3 4 14 -6 23 -13 26 -13 6z"/>
<path d="M3883 5363 c-23 -12 -34 -27 -43 -59 -7 -24 -21 -51 -31 -60 -11 -9
-19 -22 -19 -28 1 -21 60 59 60 81 0 23 19 47 56 70 27 17 15 15 -23 -4z"/>
<path d="M4334 5266 c-3 -8 -4 -23 -2 -33 3 -11 6 -6 9 15 6 34 2 42 -7 18z"/>
<path d="M4555 5266 c-17 -12 -14 -36 4 -36 8 0 23 41 17 47 -1 2 -11 -3 -21
-11z"/>
<path d="M4477 5161 c1 -58 2 -154 2 -213 l1 -107 30 -21 c17 -12 56 -25 88
-30 71 -10 90 -17 98 -38 3 -10 27 -35 52 -57 l47 -40 -40 45 -39 45 29 6 c17
4 22 7 12 8 -10 0 -32 8 -50 17 -17 10 -57 19 -87 21 -56 5 -110 28 -118 51
-3 9 14 12 62 12 77 0 75 -6 47 120 -29 127 -45 176 -64 197 -9 11 -20 33 -23
50 -4 21 -13 32 -28 35 -20 4 -21 2 -19 -101z"/>
<path d="M3345 5230 l-20 -9 20 0 c11 0 27 4 35 9 13 9 13 10 0 9 -8 0 -24 -4
-35 -9z"/>
<path d="M3288 5223 c7 -3 16 -2 19 1 4 3 -2 6 -13 5 -11 0 -14 -3 -6 -6z"/>
<path d="M3728 5128 c-25 -37 -60 -72 -82 -84 -22 -13 -45 -33 -52 -46 -21
-37 -16 -46 6 -11 10 18 37 41 58 52 21 11 50 37 64 58 54 83 60 93 55 93 -3
0 -25 -28 -49 -62z"/>
<path d="M3685 5157 c-8 -28 -41 -60 -94 -89 -18 -10 -38 -33 -47 -53 -12 -30
-26 -41 -78 -65 -40 -18 -74 -41 -92 -65 -16 -20 -60 -56 -99 -81 -82 -52
-109 -75 -151 -129 -40 -51 -60 -91 -68 -135 -4 -26 -1 -20 14 19 35 94 135
201 227 243 23 10 60 40 82 67 29 35 57 55 97 71 48 20 59 30 75 64 13 30 31
48 66 67 48 26 89 78 80 101 -2 7 -8 1 -12 -15z"/>
<path d="M4584 5140 c24 -81 51 -142 76 -172 l28 -33 -3 63 c-2 67 -26 112
-50 92 -15 -13 -25 -3 -25 25 0 13 -7 29 -16 36 -15 12 -16 11 -10 -11z"/>
<path d="M8625 5110 c-3 -6 1 -7 9 -4 18 7 21 14 7 14 -6 0 -13 -4 -16 -10z"/>
<path d="M9737 5080 c3 -11 -7 -37 -25 -64 -31 -46 -21 -55 11 -10 21 29 35
94 19 94 -5 0 -8 -9 -5 -20z"/>
<path d="M8550 5080 c-8 -5 -12 -11 -9 -14 3 -3 14 1 25 9 21 16 8 20 -16 5z"/>
<path d="M4397 5060 c-4 -14 -6 -36 -6 -50 1 -18 4 -14 10 14 10 44 6 75 -4
36z"/>
<path d="M8202 5051 c-6 -17 -9 -31 -6 -31 7 0 25 52 20 57 -2 2 -8 -10 -14
-26z"/>
<path d="M4761 5030 c14 -31 19 -36 19 -24 0 6 -7 19 -16 30 -14 18 -14 18 -3
-6z"/>
<path d="M7547 5024 c-15 -13 -35 -24 -43 -24 -8 0 -14 -4 -14 -10 0 -5 -18
-21 -40 -36 -21 -14 -46 -37 -55 -50 -15 -23 -15 -24 12 -23 21 0 36 11 58 42
17 23 40 46 50 52 43 22 67 44 63 58 -2 13 -9 11 -31 -9z"/>
<path d="M4430 5030 c0 -5 5 -10 11 -10 5 0 7 5 4 10 -3 6 -8 10 -11 10 -2 0
-4 -4 -4 -10z"/>
<path d="M8263 5022 c-12 -8 -23 -152 -10 -152 4 0 7 32 7 70 0 64 2 72 23 80
12 5 15 9 7 9 -8 0 -20 -3 -27 -7z"/>
<path d="M4727 4952 c7 -98 7 -98 57 -97 l45 0 -35 36 c-20 20 -34 43 -32 50
2 8 -6 26 -18 41 l-21 26 4 -56z"/>
<path d="M8205 4990 c3 -5 8 -10 11 -10 2 0 4 5 4 10 0 6 -5 10 -11 10 -5 0
-7 -4 -4 -10z"/>
<path d="M3550 4940 c-9 -6 -10 -10 -3 -10 6 0 15 5 18 10 8 12 4 12 -15 0z"/>
<path d="M4662 4888 c2 -30 7 -42 17 -40 7 1 19 -2 26 -8 11 -9 12 -7 8 9 -3
11 -11 26 -19 32 -8 6 -14 17 -14 25 0 7 -5 16 -11 19 -7 5 -9 -8 -7 -37z"/>
<path d="M8221 4914 c0 -11 3 -14 6 -6 3 7 2 16 -1 19 -3 4 -6 -2 -5 -13z"/>
<path d="M3470 4900 c-8 -5 -10 -10 -5 -10 6 0 17 5 25 10 8 5 11 10 5 10 -5
0 -17 -5 -25 -10z"/>
<path d="M7941 4872 c-14 -34 -9 -54 10 -35 6 6 9 23 7 39 l-3 29 -14 -33z"/>
<path d="M3415 4864 c-24 -37 -13 -40 14 -4 12 17 17 30 12 30 -5 0 -16 -12
-26 -26z"/>
<path d="M7983 4865 c0 -8 4 -15 8 -15 4 0 9 7 13 15 3 9 0 15 -8 15 -7 0 -13
-7 -13 -15z"/>
<path d="M8326 4830 c38 -41 57 -54 33 -22 -28 37 -53 62 -61 62 -5 0 8 -18
28 -40z"/>
<path d="M5118 4843 c6 -2 18 -2 25 0 6 3 1 5 -13 5 -14 0 -19 -2 -12 -5z"/>
<path d="M4871 4818 c-1 -15 8 -18 49 -18 31 0 50 4 50 11 0 8 -14 10 -44 6
-31 -5 -46 -3 -49 6 -3 7 -6 4 -6 -5z"/>
<path d="M3364 4804 c-18 -14 -18 -15 4 -4 12 6 22 13 22 15 0 8 -5 6 -26 -11z"/>
<path d="M4715 4810 c3 -5 8 -10 11 -10 2 0 4 5 4 10 0 6 -5 10 -11 10 -5 0
-7 -4 -4 -10z"/>
<path d="M5100 4806 c0 -8 -10 -17 -22 -19 -17 -3 -14 -5 10 -6 32 -1 45 20
22 34 -5 3 -10 -1 -10 -9z"/>
<path d="M4461 4806 c2 -2 15 -9 29 -16 23 -12 24 -12 11 3 -7 10 -20 17 -29
17 -8 0 -13 -2 -11 -4z"/>
<path d="M7937 4770 c3 -25 7 -47 9 -49 8 -9 2 55 -6 74 -6 13 -7 5 -3 -25z"/>
<path d="M4990 4786 l-35 -13 31 -4 c39 -6 54 -1 54 17 0 17 -4 17 -50 0z"/>
<path d="M5285 4780 c3 -5 17 -10 30 -10 13 0 25 -5 27 -11 3 -10 68 -22 68
-13 0 2 -21 12 -46 24 -49 21 -89 27 -79 10z"/>
<path d="M5440 4777 c27 -15 80 -30 80 -23 0 3 -15 9 -32 14 -18 6 -42 13 -53
17 -12 4 -10 1 5 -8z"/>
<path d="M4528 4773 c7 -3 16 -2 19 1 4 3 -2 6 -13 5 -11 0 -14 -3 -6 -6z"/>
<path d="M5258 4753 c7 -3 16 -2 19 1 4 3 -2 6 -13 5 -11 0 -14 -3 -6 -6z"/>
<path d="M3206 4711 c-48 -38 -107 -122 -120 -171 -4 -14 8 2 26 35 18 33 60
86 93 118 69 66 70 71 1 18z"/>
<path d="M4923 4730 c1 -18 2 -18 22 -2 11 9 22 18 24 19 2 2 -7 3 -22 3 -19
0 -25 -5 -24 -20z"/>
<path d="M4890 4729 c0 -5 5 -7 10 -4 6 3 10 8 10 11 0 2 -4 4 -10 4 -5 0 -10
-5 -10 -11z"/>
<path d="M5598 4733 c7 -3 16 -2 19 1 4 3 -2 6 -13 5 -11 0 -14 -3 -6 -6z"/>
<path d="M5802 4563 c-60 -98 -119 -197 -131 -221 -12 -24 -26 -40 -32 -36 -7
4 -7 -1 1 -15 11 -22 32 -33 106 -56 l41 -13 68 62 c68 62 69 63 66 110 -1 31
4 57 15 73 12 19 15 37 10 67 -4 22 -8 52 -10 66 -2 15 6 37 20 55 21 28 22
35 11 58 -7 17 -20 27 -33 27 -17 0 -45 -37 -132 -177z"/>
<path d="M5270 4727 c3 -3 28 -14 57 -26 45 -17 52 -18 57 -5 8 21 8 19 -11
22 -10 1 -38 5 -63 8 -25 3 -43 4 -40 1z"/>
<path d="M7907 4723 c-3 -5 1 -14 9 -21 12 -10 14 -10 14 2 0 17 -16 30 -23
19z"/>
<path d="M8007 4689 c-4 -25 -5 -53 -2 -61 4 -9 -1 -33 -10 -53 -8 -21 -13
-40 -10 -43 3 -3 -1 -13 -9 -21 -10 -11 -12 -21 -6 -31 7 -11 10 -11 10 -2 0
7 12 24 27 38 18 17 21 23 8 18 -16 -6 -15 -3 6 27 13 19 35 47 49 63 l25 30
-30 -23 c-16 -12 -35 -31 -40 -42 -8 -15 -10 -4 -7 44 5 81 -2 116 -11 56z"/>
<path d="M4720 4681 c0 -4 9 -16 20 -26 25 -23 43 -79 42 -129 -3 -59 7 -38
13 28 5 56 4 58 -35 96 -22 22 -40 36 -40 31z"/>
<path d="M7940 4655 c0 -17 4 -36 9 -44 11 -18 -3 -68 -29 -103 -16 -22 -18
-28 -6 -28 38 0 70 160 38 192 -9 9 -12 5 -12 -17z"/>
<path d="M5370 4635 c7 -8 10 -22 6 -30 -3 -9 -2 -13 4 -10 16 10 12 42 -6 49
-14 5 -15 4 -4 -9z"/>
<path d="M5412 4620 c0 -14 2 -19 5 -12 2 6 2 18 0 25 -3 6 -5 1 -5 -13z"/>
<path d="M7760 4631 c-19 -4 -52 -15 -72 -24 -21 -9 -52 -17 -70 -17 -18 0
-49 -8 -68 -19 l-35 -18 4 -66 c1 -37 -3 -89 -10 -118 -12 -45 -11 -54 4 -81
9 -16 17 -42 17 -57 0 -15 3 -31 7 -34 9 -9 66 73 107 153 19 36 62 112 96
170 35 58 65 108 67 113 2 4 1 6 -4 6 -4 -1 -24 -5 -43 -8z"/>
<path d="M8253 4605 c0 -22 2 -30 4 -17 2 12 2 30 0 40 -3 9 -5 -1 -4 -23z"/>
<path d="M7910 4617 c0 -8 -9 -25 -19 -38 -10 -14 -21 -36 -23 -49 -2 -17 -19
-36 -53 -57 -27 -18 -52 -39 -54 -45 -2 -8 6 -5 22 5 15 9 32 17 40 17 16 0
57 41 57 58 0 7 11 22 25 34 26 22 34 71 15 83 -5 3 -10 0 -10 -8z"/>
<path d="M4950 4612 c0 -7 7 -20 15 -28 8 -9 15 -24 15 -36 0 -11 15 -38 33
-61 19 -23 37 -50 40 -60 4 -9 19 -23 34 -29 15 -7 31 -17 35 -23 4 -5 10 -6
13 -3 4 4 -8 17 -27 29 -29 20 -118 136 -118 156 0 4 -9 22 -20 38 -11 17 -20
24 -20 17z"/>
<path d="M8065 4599 c-11 -17 1 -21 15 -4 8 9 8 15 2 15 -6 0 -14 -5 -17 -11z"/>
<path d="M5706 4559 c-12 -23 -12 -28 -2 -20 12 11 29 51 21 51 -2 0 -10 -14
-19 -31z"/>
<path d="M4866 4555 c9 -14 20 -25 25 -25 5 0 16 -14 24 -30 13 -25 14 -37 4
-70 -7 -22 -14 -40 -16 -40 -3 0 -29 20 -57 45 -68 58 -94 59 -32 2 48 -45 54
-63 34 -100 -10 -20 -10 -21 5 -8 10 7 17 22 17 32 0 11 5 19 11 19 7 0 8 -7
4 -17 -37 -88 -38 -125 -3 -175 11 -16 16 -33 12 -39 -4 -8 -3 -9 4 -5 16 10
15 26 -4 47 -31 35 -34 83 -7 141 13 29 33 62 43 73 10 11 20 29 22 39 6 35
23 26 56 -30 19 -30 51 -67 73 -81 27 -18 42 -37 49 -62 5 -20 16 -46 24 -57
25 -34 31 -98 12 -113 -12 -10 -14 -17 -5 -27 6 -8 18 -14 25 -14 7 0 21 -11
29 -24 12 -18 13 -29 5 -51 -13 -34 -7 -41 19 -23 21 15 24 6 -28 117 -13 27
-18 53 -15 68 5 17 0 31 -14 46 -11 12 -28 46 -38 76 -13 41 -26 60 -58 83
-22 16 -53 48 -67 71 -15 23 -41 55 -58 71 -17 17 -31 35 -31 41 0 6 -7 20
-16 31 -8 10 -13 14 -10 7 10 -18 -10 -25 -24 -8 -21 25 -32 17 -14 -10z"/>
<path d="M5296 4536 c3 -8 22 -27 41 -42 43 -33 31 -7 -15 31 -18 15 -30 20
-26 11z"/>
<path d="M5392 4520 c0 -14 2 -19 5 -12 2 6 2 18 0 25 -3 6 -5 1 -5 -13z"/>
<path d="M3062 4485 c-17 -37 -14 -45 4 -12 9 16 14 31 11 33 -2 2 -9 -7 -15
-21z"/>
<path d="M5280 4506 c0 -2 8 -10 18 -17 15 -13 16 -12 3 4 -13 16 -21 21 -21
13z"/>
<path d="M3025 4470 c-3 -5 -1 -10 4 -10 6 0 11 5 11 10 0 6 -2 10 -4 10 -3 0
-8 -4 -11 -10z"/>
<path d="M7935 4470 c-3 -5 -1 -10 4 -10 6 0 11 5 11 10 0 6 -2 10 -4 10 -3 0
-8 -4 -11 -10z"/>
<path d="M5395 4450 c-3 -5 -1 -10 4 -10 6 0 11 5 11 10 0 6 -2 10 -4 10 -3 0
-8 -4 -11 -10z"/>
<path d="M7871 4434 c-12 -15 -21 -36 -21 -48 1 -17 4 -15 14 10 8 17 24 39
37 48 18 12 20 16 7 16 -9 0 -26 -12 -37 -26z"/>
<path d="M7981 4444 c0 -11 3 -14 6 -6 3 7 2 16 -1 19 -3 4 -6 -2 -5 -13z"/>
<path d="M2962 4420 c-22 -14 -44 -28 -48 -32 -14 -15 81 23 104 40 21 16 21
18 4 18 -10 0 -37 -12 -60 -26z"/>
<path d="M5586 4395 c-9 -14 -24 -25 -34 -25 -15 0 -15 -2 -2 -10 22 -14 25
-13 43 25 20 41 16 46 -7 10z"/>
<path d="M7827 4413 c-4 -3 -7 -11 -7 -17 0 -6 5 -5 12 2 6 6 9 14 7 17 -3 3
-9 2 -12 -2z"/>
<path d="M8030 4365 c19 -19 36 -35 39 -35 3 0 -10 16 -29 35 -19 19 -36 35
-39 35 -3 0 10 -16 29 -35z"/>
<path d="M5390 4386 c0 -2 8 -10 18 -17 15 -13 16 -12 3 4 -13 16 -21 21 -21
13z"/>
<path d="M7764 4335 c12 -40 21 -43 36 -15 9 16 8 18 -5 13 -11 -4 -18 1 -22
16 -3 11 -9 21 -13 21 -4 0 -2 -16 4 -35z"/>
<path d="M8022 4328 c7 -15 15 -23 17 -17 2 6 -4 18 -13 27 -15 15 -15 15 -4
-10z"/>
<path d="M5370 4330 c-42 -9 -90 -27 -90 -35 0 -3 16 2 36 10 20 8 54 15 75
15 22 0 39 5 39 10 0 11 -9 11 -60 0z"/>
<path d="M5493 4333 c-27 -5 -29 -20 -8 -49 10 -15 22 -20 40 -17 24 5 36 23
15 23 -7 0 -7 6 -1 19 6 10 7 21 4 25 -7 6 -13 6 -50 -1z"/>
<path d="M7831 4333 c-1 -6 -13 -26 -28 -44 l-28 -33 0 -180 c0 -132 -4 -187
-13 -204 -8 -13 -11 -26 -8 -29 3 -4 15 16 27 43 19 41 20 55 12 89 -7 24 -8
88 -4 162 6 105 10 126 29 153 13 17 21 36 18 43 -3 9 -5 9 -5 0z"/>
<path d="M7721 4308 c-1 -16 -10 -33 -23 -42 -15 -11 -17 -16 -8 -16 8 0 23 7
34 15 15 11 16 19 8 42 l-10 28 -1 -27z"/>
<path d="M8071 4304 c0 -11 3 -14 6 -6 3 7 2 16 -1 19 -3 4 -6 -2 -5 -13z"/>
<path d="M5179 4273 c8 -51 34 -65 63 -33 19 20 19 21 2 7 -34 -28 -54 -16
-54 33 0 10 -4 21 -8 24 -5 3 -6 -11 -3 -31z"/>
<path d="M4821 4265 c0 -11 4 -27 9 -35 9 -13 10 -13 9 0 0 8 -4 24 -9 35 l-9
20 0 -20z"/>
<path d="M5447 4214 c-6 -59 -27 -97 -92 -167 -19 -21 -40 -37 -47 -35 -20 7
-68 110 -70 152 l-1 41 -4 -39 c-3 -22 1 -51 7 -65 34 -73 56 -111 64 -111 17
0 136 134 145 165 16 51 22 103 13 109 -5 3 -12 -20 -15 -50z"/>
<path d="M5590 4210 c-14 -22 -28 -40 -32 -40 -13 0 -9 -34 7 -57 10 -14 17
-48 18 -91 2 -64 0 -71 -32 -110 -18 -24 -46 -49 -63 -58 -16 -8 -38 -24 -49
-35 -12 -12 -23 -18 -26 -15 -8 7 56 66 72 66 7 0 26 16 44 36 30 36 31 39 25
115 -3 47 -13 93 -25 115 -10 21 -19 51 -19 66 0 15 -4 28 -9 28 -10 0 -16
-16 -25 -71 -4 -23 -20 -48 -46 -74 -22 -22 -40 -43 -40 -48 0 -21 100 95 100
116 1 20 2 20 16 -6 17 -31 22 -20 -78 -186 -37 -63 -73 -118 -79 -122 -8 -5
-3 -18 15 -41 28 -37 32 -53 16 -63 -5 -3 -19 10 -31 29 -22 37 -39 47 -39 22
0 -15 -110 -188 -142 -223 -19 -21 -19 -23 -3 -78 11 -38 14 -72 10 -99 l-7
-41 26 24 c46 43 63 82 52 119 -8 28 -6 36 14 57 13 14 48 37 77 50 63 31 72
41 208 279 17 29 40 63 53 76 15 17 22 36 22 65 0 52 16 74 91 126 33 23 58
47 56 52 -4 14 -64 35 -99 36 -15 1 -30 6 -33 11 -11 17 -19 11 -45 -30z"/>
<path d="M7705 4235 c-20 -9 -23 -14 -10 -12 17 2 21 -6 26 -53 4 -30 12 -66
18 -80 10 -21 10 -19 4 15 -4 22 -7 64 -6 93 1 28 0 52 0 52 -1 -1 -15 -7 -32
-15z"/>
<path d="M5030 4228 c0 -9 5 -20 10 -23 13 -8 13 5 0 25 -8 13 -10 13 -10 -2z"/>
<path d="M7595 4220 c-3 -6 1 -7 9 -4 18 7 21 14 7 14 -6 0 -13 -4 -16 -10z"/>
<path d="M4845 4147 c3 -39 1 -56 -6 -52 -6 4 -9 0 -7 -9 3 -16 -15 -30 -82
-62 -19 -9 -42 -20 -50 -24 -8 -4 -17 -18 -18 -31 -2 -13 -12 -33 -22 -44 -17
-19 -28 -91 -31 -205 -2 -58 13 -140 23 -134 6 4 8 -2 4 -14 -4 -11 -2 -23 4
-27 5 -3 10 -29 10 -56 0 -52 10 -79 41 -113 17 -18 39 -74 39 -100 0 -5 7
-17 16 -27 12 -14 14 -26 6 -68 -5 -28 -6 -48 -2 -46 4 2 10 24 13 48 4 24 14
58 23 74 15 25 16 36 6 64 l-12 34 5 -38 c7 -70 -22 -94 -42 -34 -21 62 -24
77 -15 77 6 0 14 -17 20 -37 8 -31 10 -33 11 -13 1 28 -26 73 -38 65 -5 -2
-19 8 -32 22 l-24 27 30 -18 30 -19 -22 24 c-13 15 -24 44 -29 77 -3 28 -10
52 -15 52 -5 0 -9 20 -9 44 0 25 -4 48 -10 51 -5 3 -10 11 -10 16 0 6 5 7 12
3 7 -5 8 -3 2 7 -4 8 -8 25 -7 39 1 15 0 18 -3 8 -10 -32 -26 -20 -21 15 14
77 20 96 28 91 5 -3 9 -1 9 5 0 5 -5 11 -12 13 -7 3 -8 10 -4 17 7 11 10 11
17 0 7 -11 9 -9 9 6 1 43 44 145 61 145 6 0 7 -5 3 -11 -4 -7 -1 -10 7 -7 8 3
14 9 14 14 0 15 15 34 28 34 6 0 2 -7 -9 -15 -10 -8 -14 -15 -8 -15 6 0 30 21
52 46 34 36 42 53 42 83 0 20 -7 46 -15 57 -13 17 -14 14 -10 -39z m-135 -167
c0 -5 -4 -10 -10 -10 -5 0 -10 5 -10 10 0 6 5 10 10 10 6 0 10 -4 10 -10z
m-49 -93 c-8 -8 -11 -7 -11 4 0 20 13 34 18 19 3 -7 -1 -17 -7 -23z"/>
<path d="M5050 4178 c0 -20 30 -59 41 -53 16 10 9 29 -16 48 -18 13 -25 14
-25 5z"/>
<path d="M5755 4146 c-17 -18 -45 -40 -62 -49 -35 -18 -43 -34 -43 -83 0 -41
-19 -81 -50 -109 -13 -11 -30 -36 -39 -55 -9 -19 -30 -55 -46 -80 -16 -25 -43
-68 -61 -96 -39 -60 -48 -68 -128 -115 -55 -32 -61 -39 -58 -65 1 -16 2 -36 3
-46 0 -9 -11 -35 -25 -57 -27 -43 -36 -111 -14 -111 9 0 9 -3 0 -12 -7 -7 -12
-27 -12 -45 0 -19 -7 -50 -15 -70 -22 -52 -20 -55 28 -37 78 29 102 46 122 87
11 22 33 49 48 61 24 17 31 18 60 8 18 -7 53 -12 78 -12 l44 0 35 71 c19 39
43 75 54 81 11 6 42 11 70 12 l51 1 5 55 c4 30 2 67 -4 81 -7 20 -4 37 17 80
14 30 34 59 45 66 11 6 23 28 27 49 3 21 15 49 26 62 10 14 19 32 19 41 0 9 9
33 20 53 17 33 19 49 13 129 l-6 90 -48 -6 c-44 -6 -50 -4 -80 24 -17 17 -35
31 -38 31 -3 0 -20 -16 -36 -34z"/>
<path d="M8112 4160 c0 -14 2 -19 5 -12 2 6 2 18 0 25 -3 6 -5 1 -5 -13z"/>
<path d="M8070 4133 c-23 -58 -23 -61 0 -20 12 21 20 43 18 48 -2 6 -10 -7
-18 -28z"/>
<path d="M8096 4113 c-6 -14 -5 -15 5 -6 7 7 10 15 7 18 -3 3 -9 -2 -12 -12z"/>
<path d="M4901 4074 c0 -11 3 -14 6 -6 3 7 2 16 -1 19 -3 4 -6 -2 -5 -13z"/>
<path d="M8075 4079 c-4 -6 -5 -12 -2 -15 2 -3 7 2 10 11 7 17 1 20 -8 4z"/>
<path d="M4877 4049 c4 -13 8 -18 11 -10 2 7 -1 18 -6 23 -8 8 -9 4 -5 -13z"/>
<path d="M8000 4028 c-25 -23 -36 -36 -25 -30 31 18 80 61 75 66 -3 2 -25 -14
-50 -36z"/>
<path d="M7731 3997 c0 -37 -8 -84 -16 -105 -13 -33 -13 -35 0 -17 28 36 38
89 27 141 l-10 49 -1 -68z"/>
<path d="M8044 4028 l-19 -23 23 19 c12 11 22 21 22 23 0 8 -8 2 -26 -19z"/>
<path d="M4881 3984 c0 -11 3 -14 6 -6 3 7 2 16 -1 19 -3 4 -6 -2 -5 -13z"/>
<path d="M5328 3976 c-20 -15 -25 -80 -8 -106 7 -11 10 1 10 41 0 30 5 60 12
67 16 16 7 15 -14 -2z"/>
<path d="M7922 3964 c-18 -12 -22 -25 -22 -69 0 -43 -5 -60 -27 -87 l-27 -33
36 34 c35 32 36 36 31 81 -5 40 -2 50 18 68 27 26 23 29 -9 6z"/>
<path d="M7969 3963 c-13 -16 -12 -17 4 -4 16 13 21 21 13 21 -2 0 -10 -8 -17
-17z"/>
<path d="M7570 3967 c0 -3 12 -12 26 -22 15 -9 23 -12 20 -6 -7 11 -46 35 -46
28z"/>
<path d="M4872 3935 c0 -16 2 -22 5 -12 2 9 2 23 0 30 -3 6 -5 -1 -5 -18z"/>
<path d="M4887 3914 c-4 -20 0 -34 11 -44 13 -11 14 -12 4 0 -20 24 -13 34 10
14 13 -11 17 -12 11 -3 -7 8 -16 26 -21 39 -9 24 -9 24 -15 -6z"/>
<path d="M7934 3926 c-3 -8 -4 -25 -2 -38 3 -17 5 -13 9 15 5 38 2 47 -7 23z"/>
<path d="M5136 3821 c-26 -60 -34 -111 -16 -111 6 0 10 16 10 35 0 19 4 43 9
53 25 49 34 72 29 77 -3 3 -17 -21 -32 -54z"/>
<path d="M4940 3820 c12 -16 24 -30 26 -30 3 0 -4 14 -16 30 -12 17 -24 30
-26 30 -3 0 4 -13 16 -30z"/>
<path d="M5178 3813 c-15 -35 -16 -129 -1 -144 7 -7 9 4 6 38 -3 26 0 67 5 91
11 48 7 55 -10 15z"/>
<path d="M7920 3820 c-6 -11 -8 -20 -6 -20 3 0 10 9 16 20 6 11 8 20 6 20 -3
0 -10 -9 -16 -20z"/>
<path d="M4970 3821 c0 -6 4 -13 10 -16 6 -3 7 1 4 9 -7 18 -14 21 -14 7z"/>
<path d="M7614 3806 c-6 -15 -100 -96 -113 -96 -3 0 -19 20 -34 45 -31 48 -54
60 -43 23 4 -13 9 -44 13 -70 7 -55 12 -55 93 8 66 50 106 92 97 100 -4 4 -9
-1 -13 -10z m-134 -107 c0 -5 -4 -9 -10 -9 -5 0 -10 7 -10 16 0 8 5 12 10 9 6
-3 10 -10 10 -16z"/>
<path d="M7691 3789 c-1 -9 7 -23 17 -30 15 -12 16 -12 6 1 -6 8 -14 22 -17
30 -5 13 -6 12 -6 -1z"/>
<path d="M7337 3762 l-26 -27 19 -29 c37 -57 48 -52 43 17 -3 34 -6 63 -7 64
-1 2 -14 -10 -29 -25z"/>
<path d="M7877 3783 c-4 -3 -6 -31 -6 -62 l2 -56 7 60 c7 65 7 69 -3 58z"/>
<path d="M7651 3768 c8 -7 22 -22 32 -33 18 -19 18 -19 0 12 -10 18 -24 33
-32 33 -13 0 -13 -2 0 -12z"/>
<path d="M8232 3740 c0 -14 2 -19 5 -12 2 6 2 18 0 25 -3 6 -5 1 -5 -13z"/>
<path d="M4978 3719 c-9 -16 -13 -29 -7 -29 9 0 33 49 27 56 -2 1 -11 -11 -20
-27z"/>
<path d="M7730 3726 c0 -2 8 -10 18 -17 15 -13 16 -12 3 4 -13 16 -21 21 -21
13z"/>
<path d="M7532 3693 c-20 -18 -20 -19 -1 -58 21 -45 25 -38 7 12 -11 29 -10
35 8 48 10 8 16 15 13 15 -4 0 -16 -8 -27 -17z"/>
<path d="M4989 3683 c-13 -16 -12 -17 4 -4 16 13 21 21 13 21 -2 0 -10 -8 -17
-17z"/>
<path d="M7793 3680 c15 -12 43 -46 62 -75 20 -29 43 -56 53 -60 12 -4 11 0
-6 18 -12 13 -22 31 -22 40 0 9 -6 16 -12 15 -7 -2 -12 5 -10 15 2 9 -3 17
-11 17 -8 0 -20 7 -27 16 -8 8 -23 20 -34 25 -13 6 -11 2 7 -11z"/>
<path d="M5126 3662 c3 -18 1 -38 -4 -45 -17 -22 -24 -75 -13 -113 11 -40 6
-49 -106 -220 l-15 -24 40 14 c66 24 100 45 107 67 10 30 7 108 -5 149 -14 50
-12 97 6 125 14 21 14 26 -1 52 l-16 28 7 -33z"/>
<path d="M7180 3659 c-36 -16 -86 -51 -112 -76 -63 -62 -53 -70 100 -85 98
-10 123 -9 136 1 17 15 22 36 6 26 -14 -9 -24 23 -12 38 16 19 24 80 13 97 -9
12 -14 13 -31 3 -27 -17 -30 -16 -25 7 5 26 2 26 -75 -11z"/>
<path d="M7768 3660 c49 -35 64 -76 37 -97 -22 -16 -12 -17 16 -2 17 9 21 7
26 -10 3 -11 9 -19 13 -16 23 14 -89 155 -122 155 -6 0 8 -13 30 -30z"/>
<path d="M4906 3661 c-10 -11 -16 -28 -13 -38 4 -17 5 -17 6 1 0 11 8 28 18
38 9 10 14 18 11 18 -3 0 -13 -9 -22 -19z"/>
<path d="M4933 3648 c-15 -17 -18 -30 -12 -48 7 -24 7 -23 8 7 1 21 9 37 23
47 12 9 18 16 12 16 -6 0 -20 -10 -31 -22z"/>
<path d="M8241 3654 c0 -11 3 -14 6 -6 3 7 2 16 -1 19 -3 4 -6 -2 -5 -13z"/>
<path d="M7360 3640 c-1 -3 -4 -16 -6 -30 -3 -18 -2 -22 7 -13 6 6 9 19 6 29
-3 11 -6 17 -7 14z"/>
<path d="M4892 3570 c0 -14 2 -19 5 -12 2 6 2 18 0 25 -3 6 -5 1 -5 -13z"/>
<path d="M7646 3572 c-3 -5 7 -7 23 -4 17 2 32 -2 40 -12 8 -9 27 -16 45 -15
l31 1 -33 8 c-19 4 -39 13 -45 19 -13 13 -54 15 -61 3z"/>
<path d="M6853 3539 c4 -13 7 -34 7 -46 0 -32 29 -30 73 6 41 32 39 41 -10 41
-19 0 -44 5 -55 11 -19 10 -20 9 -15 -12z"/>
<path d="M7380 3531 c0 -10 39 -36 45 -29 2 2 -8 11 -21 21 -13 10 -24 13 -24
8z"/>
<path d="M7709 3528 c7 -10 23 -17 35 -17 20 1 20 2 1 6 -11 3 -27 10 -35 17
-13 10 -13 9 -1 -6z"/>
<path d="M7808 3515 c-3 -13 -2 -22 2 -20 11 7 20 45 10 45 -4 0 -10 -11 -12
-25z"/>
<path d="M7512 3519 c2 -7 10 -15 17 -17 8 -3 12 1 9 9 -2 7 -10 15 -17 17 -8
3 -12 -1 -9 -9z"/>
<path d="M7966 3508 c10 -14 21 -24 23 -22 3 3 -6 15 -18 27 l-24 22 19 -27z"/>
<path d="M7924 3501 c21 -23 26 -26 26 -11 0 5 -10 15 -22 21 -23 12 -23 12
-4 -10z"/>
<path d="M6965 3485 c-16 -14 -45 -31 -62 -37 -18 -7 -33 -15 -33 -19 0 -20
-10 -246 -11 -259 -5 -36 2 -60 16 -60 8 0 15 -4 15 -10 0 -23 41 -9 51 17 6
15 26 42 44 59 19 17 61 79 94 138 32 59 67 116 76 126 15 17 14 18 -22 24
-21 4 -50 8 -64 9 -14 1 -33 10 -43 20 -22 22 -25 21 -61 -8z"/>
<path d="M7347 3474 c-15 -30 -21 -33 -76 -40 -34 -3 -67 -12 -75 -18 -8 -6
-40 -58 -72 -116 -32 -58 -77 -126 -101 -152 -27 -29 -43 -57 -43 -72 0 -17
-9 -30 -27 -40 -21 -11 -23 -15 -10 -16 26 0 12 -17 -21 -25 -19 -4 -30 -15
-38 -38 -6 -17 -14 -40 -19 -49 -6 -15 -2 -18 21 -19 l29 -1 -33 -9 c-18 -6
-42 -19 -52 -29 -11 -11 -30 -20 -42 -21 -13 0 -18 -3 -11 -5 17 -7 -51 -148
-105 -216 -43 -55 -44 -60 -40 -113 5 -65 26 -92 77 -100 20 -4 56 -16 80 -27
24 -11 66 -22 93 -23 35 -2 57 -9 76 -26 30 -27 67 -49 81 -49 5 0 13 9 16 20
8 24 41 26 81 5 16 -8 41 -15 55 -15 15 0 31 -6 36 -12 18 -23 35 -82 43 -150
9 -76 33 -126 54 -109 13 11 50 82 59 111 2 8 -5 28 -16 43 -17 25 -18 34 -8
67 6 20 11 50 11 67 0 32 29 95 60 127 11 12 25 37 31 56 13 38 78 134 86 126
3 -2 -9 -24 -25 -48 -16 -24 -36 -62 -42 -86 -7 -23 -23 -48 -36 -56 -25 -17
-56 -99 -52 -142 1 -16 -4 -39 -11 -52 -9 -18 -9 -26 2 -42 13 -19 15 -18 67
18 51 36 55 37 131 34 86 -3 90 -1 103 69 3 20 24 60 46 89 22 30 40 57 40 61
0 15 21 62 25 57 9 -8 -21 -81 -53 -131 -17 -27 -36 -71 -43 -99 -18 -69 -41
-83 -122 -74 -58 6 -67 4 -109 -23 -38 -24 -53 -43 -88 -115 -42 -88 -47 -122
-17 -120 9 1 17 -2 17 -7 0 -5 6 -9 14 -9 8 0 28 -12 44 -27 16 -16 42 -39 57
-53 27 -24 45 -58 45 -86 0 -24 -20 -16 -31 13 -6 15 -34 49 -62 75 -72 65
-102 65 -201 -2 -41 -28 -78 -55 -81 -61 -13 -20 5 -57 33 -68 36 -15 45 -15
167 -2 73 7 109 7 132 -1 26 -9 36 -8 57 5 32 21 79 91 95 140 7 20 27 53 46
72 31 34 35 35 104 35 59 0 75 4 92 21 25 25 36 18 22 -14 -14 -29 -78 -50
-130 -41 -33 5 -41 2 -64 -23 -14 -15 -31 -48 -38 -73 -29 -102 -130 -191
-189 -169 -40 15 -192 -16 -192 -40 0 -3 -13 -12 -29 -19 -22 -10 -38 -10 -72
-1 -24 6 -68 14 -98 16 -30 3 -65 12 -77 19 -12 8 -36 19 -53 24 -29 8 -36 5
-69 -24 -51 -45 -73 -56 -124 -57 -41 -1 -41 -2 -13 -10 22 -6 13 -7 -37 -6
-36 1 -70 -2 -75 -6 -4 -5 -3 -8 2 -7 23 5 46 -1 40 -10 -3 -5 5 -16 17 -23
27 -17 449 -34 432 -17 -5 5 -31 10 -59 12 -29 2 3 7 80 11 72 5 163 12 203
18 40 5 116 9 167 9 52 0 97 4 100 10 6 10 98 6 117 -6 30 -19 198 6 198 29 0
5 11 0 25 -11 15 -12 40 -20 63 -20 l37 0 -30 13 -30 13 33 1 c17 1 32 -3 32
-8 0 -5 37 -14 81 -21 111 -16 173 9 124 50 -21 18 -3 30 45 30 26 0 31 3 20
10 -8 5 -10 10 -4 10 11 0 -4 82 -18 96 -9 8 0 61 15 92 6 13 19 22 34 22 27
0 29 7 7 32 -16 17 -15 19 10 39 19 15 24 24 16 33 -5 7 -7 16 -3 20 4 3 -2
12 -12 20 -15 11 -17 21 -11 64 8 58 12 57 -79 15 -53 -24 -143 -121 -151
-162 -4 -17 -15 -36 -25 -42 -11 -5 -19 -21 -19 -35 0 -14 -9 -37 -19 -51 -11
-13 -27 -48 -35 -78 -11 -36 -27 -62 -51 -84 -41 -35 -47 -38 -38 -14 7 17 9
17 -77 -2 -18 -4 -15 -1 10 11 68 34 93 44 106 44 7 0 20 24 30 53 9 28 26 64
37 79 11 15 17 34 14 42 -4 9 4 27 18 42 14 15 25 38 25 51 0 14 13 35 34 53
18 16 44 46 57 65 13 20 42 46 64 57 22 12 57 32 78 45 32 20 36 26 25 42 -11
18 -14 18 -39 5 -39 -20 -42 -18 -37 16 4 26 1 30 -19 30 -41 0 -92 28 -113
62 -11 18 -20 29 -20 24 0 -6 -6 -1 -14 9 -8 11 -12 24 -10 30 5 13 -37 35
-69 35 -33 1 -93 76 -102 128 -7 42 -34 70 -55 57 -6 -3 -9 4 -7 16 1 12 -4
24 -12 27 -8 3 -11 0 -7 -7 4 -6 2 -11 -4 -11 -7 0 -10 6 -7 14 3 8 -3 22 -12
31 -10 9 -21 33 -25 53 -6 39 -31 68 -94 111 -18 12 -39 35 -46 49 -14 26 -17
27 -102 27 -81 0 -103 6 -104 27 0 4 8 5 18 2 9 -2 7 1 -5 7 -13 7 -23 15 -23
20 0 4 -9 5 -20 2 -15 -4 -20 0 -20 16 0 12 -4 20 -9 16 -5 -3 -17 2 -26 11
-14 14 -20 15 -43 4 -40 -19 -192 -22 -199 -4 -7 19 -48 18 -67 -2 -31 -31
-113 -40 -103 -11 2 6 15 14 30 18 15 4 41 19 58 33 17 14 42 26 56 26 14 0
37 9 51 21 24 19 35 20 105 14 l77 -6 0 26 c0 34 22 84 50 113 12 13 20 24 19
26 -43 31 -71 46 -87 46 -23 0 -62 56 -62 89 0 30 16 26 24 -6 8 -39 25 -56
74 -75 l42 -16 0 78 c0 78 0 78 -34 98 l-33 20 -16 -34z m-84 -61 c-7 -2 -21
-2 -30 0 -10 3 -4 5 12 5 17 0 24 -2 18 -5z m100 -120 c-7 -2 -21 -2 -30 0
-10 3 -4 5 12 5 17 0 24 -2 18 -5z m80 -380 c-7 -2 -19 -2 -25 0 -7 3 -2 5 12
5 14 0 19 -2 13 -5z m386 -197 c0 -14 -2 -16 -6 -6 -3 8 -12 29 -20 45 l-14
30 21 -24 c11 -13 20 -33 19 -45z m61 -126 c0 -5 -5 -10 -11 -10 -5 0 -7 5 -4
10 3 6 8 10 11 10 2 0 4 -4 4 -10z m42 -562 c-7 -7 -12 -8 -12 -2 0 14 12 26
19 19 2 -3 -1 -11 -7 -17z m56 -114 c-18 -19 -48 -12 -48 10 0 16 40 26 55 14
5 -5 3 -14 -7 -24z m-158 -214 c0 -5 -7 -10 -16 -10 -8 0 -12 5 -9 10 3 6 10
10 16 10 5 0 9 -4 9 -10z m0 -74 c0 -8 -15 -16 -37 -19 -21 -3 -47 -8 -58 -12
-11 -3 0 5 25 19 51 29 70 32 70 12z"/>
<path d="M4861 3479 c-7 -12 -10 -23 -8 -26 3 -3 11 5 17 17 6 12 10 23 8 25
-2 2 -10 -5 -17 -16z"/>
<path d="M7557 3475 c-5 -12 4 -28 29 -54 25 -24 32 -28 23 -12 -8 13 -21 37
-30 54 -13 25 -17 27 -22 12z"/>
<path d="M4940 3460 c-9 -6 -10 -10 -3 -10 6 0 15 5 18 10 8 12 4 12 -15 0z"/>
<path d="M7450 3386 c0 -46 3 -91 6 -99 15 -41 88 39 82 90 -2 15 -8 28 -13
28 -6 0 -25 15 -43 33 l-32 33 0 -85z"/>
<path d="M7961 3460 c0 -8 6 -28 14 -45 17 -39 18 -21 0 25 -7 19 -14 28 -14
20z"/>
<path d="M4871 3437 c-13 -21 -12 -21 5 -5 10 10 16 20 13 22 -3 3 -11 -5 -18
-17z"/>
<path d="M7806 3445 c-9 -26 -7 -32 5 -12 6 10 9 21 6 23 -2 3 -7 -2 -11 -11z"/>
<path d="M4823 3409 c-7 -18 -11 -35 -8 -37 6 -6 27 48 23 60 -2 5 -9 -6 -15
-23z"/>
<path d="M4850 3369 c-6 -11 -10 -27 -8 -35 2 -8 8 1 14 20 12 40 10 46 -6 15z"/>
<path d="M8030 3371 c0 -6 4 -13 10 -16 6 -3 7 1 4 9 -7 18 -14 21 -14 7z"/>
<path d="M7570 3344 c0 -11 11 -48 23 -84 26 -71 16 -67 117 -54 35 5 49 2 59
-10 7 -9 18 -16 24 -16 6 0 -2 14 -19 31 -27 29 -27 31 -6 25 60 -17 62 -15 8
8 -33 15 -70 26 -83 26 -34 0 -80 26 -88 49 -3 11 -12 25 -20 31 -12 10 -15 9
-15 -6z m167 -100 c-3 -3 -12 -4 -19 -1 -8 3 -5 6 6 6 11 1 17 -2 13 -5z"/>
<path d="M7650 3351 c0 -6 4 -13 10 -16 6 -3 7 1 4 9 -7 18 -14 21 -14 7z"/>
<path d="M7771 3344 c0 -11 3 -14 6 -6 3 7 2 16 -1 19 -3 4 -6 -2 -5 -13z"/>
<path d="M8028 3315 c10 -16 24 -39 30 -50 8 -14 11 -15 11 -5 0 8 -13 31 -30
50 -27 31 -29 31 -11 5z"/>
<path d="M5176 3311 c-7 -11 -133 -71 -149 -71 -12 0 -34 -33 -65 -95 -18 -37
-52 -75 -66 -75 -6 0 -22 -9 -36 -19 -24 -19 -24 -20 -6 -40 11 -12 25 -21 33
-21 7 0 13 -5 13 -11 0 -6 -15 -1 -33 10 l-34 21 -30 -43 c-31 -44 -65 -162
-61 -214 1 -17 -7 -42 -19 -59 -12 -16 -24 -47 -28 -68 -5 -26 -26 -60 -66
-106 l-58 -67 -3 -129 -3 -129 -40 1 c-22 1 -32 0 -22 -3 21 -5 23 -23 2 -23
-19 0 -19 -38 0 -104 13 -44 33 -118 52 -193 3 -13 -5 -43 -20 -74 l-26 -51
29 -81 c35 -93 35 -97 15 -97 -8 0 -15 7 -15 15 0 8 -10 45 -22 81 l-22 67 24
68 c22 65 22 70 6 102 -8 19 -21 58 -28 86 -13 59 -37 68 -55 21 -6 -17 -23
-34 -38 -40 -23 -9 -26 -14 -20 -37 3 -15 15 -39 26 -54 10 -15 19 -38 19 -51
0 -39 12 -68 27 -68 9 0 13 -6 10 -14 -3 -8 1 -20 9 -26 8 -7 14 -19 14 -26 0
-17 -22 -18 -37 -3 -6 6 -57 19 -114 29 -57 11 -124 24 -149 29 -25 6 -77 10
-117 11 -39 0 -75 5 -78 10 -6 10 -65 14 -65 5 0 -3 11 -18 25 -33 22 -23 23
-28 10 -38 -19 -14 -19 -28 0 -44 9 -7 13 -20 10 -30 -4 -13 4 -19 32 -28 54
-15 283 -24 381 -14 75 7 84 6 100 -12 13 -14 14 -20 4 -23 -7 -3 -18 -11 -26
-18 -11 -11 -21 -12 -49 -3 -26 8 -50 8 -89 -1 -29 -6 -107 -13 -173 -14 -113
-3 -204 -19 -249 -44 -17 -9 -12 -12 33 -22 29 -6 66 -11 84 -11 18 0 89 -10
159 -22 107 -18 124 -23 110 -34 -9 -7 -21 -10 -27 -6 -5 3 -3 -3 5 -13 14
-17 14 -18 -8 -6 -29 16 -44 4 -18 -14 20 -15 14 -35 -12 -35 -14 0 -14 -2 -3
-9 10 -7 2 -11 -30 -15 -93 -12 -90 -13 31 -14 78 0 140 4 165 13 22 7 31 13
21 14 -54 3 41 29 227 62 48 8 66 16 63 25 -3 8 7 15 27 19 18 3 49 13 69 22
l38 16 -6 71 c-3 39 -9 85 -14 101 -5 17 -9 44 -8 61 0 18 -10 47 -28 73 -25
38 -29 54 -32 136 -3 75 -1 98 12 116 22 32 20 46 -15 125 -41 91 -59 161 -62
246 l-2 70 45 42 c25 22 67 73 93 112 26 40 54 74 62 78 8 3 26 31 40 63 16
36 42 73 70 98 35 32 45 49 50 82 8 57 45 138 100 221 37 55 47 81 52 126 4
37 2 56 -5 56 -6 0 -13 -4 -16 -9z m-696 -1411 c0 -5 -5 -10 -11 -10 -5 0 -7
5 -4 10 3 6 8 10 11 10 2 0 4 -4 4 -10z m145 -44 c17 -13 28 -27 25 -29 -3 -3
-21 8 -40 24 -19 15 -30 29 -25 29 6 0 24 -11 40 -24z m-275 -465 c0 -5 -7
-11 -15 -15 -9 -3 -15 0 -15 9 0 8 7 15 15 15 8 0 15 -4 15 -9z"/>
<path d="M8076 3297 c3 -10 9 -15 12 -12 3 3 0 11 -7 18 -10 9 -11 8 -5 -6z"/>
<path d="M4379 3283 c-13 -16 -12 -17 4 -4 16 13 21 21 13 21 -2 0 -10 -8 -17
-17z"/>
<path d="M7508 3272 c-26 -27 -26 -27 -7 -51 10 -13 19 -28 19 -35 -1 -12 -45
35 -52 56 -4 11 -8 10 -22 -1 -26 -22 -46 -66 -46 -104 0 -33 2 -35 43 -40 38
-5 44 -3 66 24 21 28 27 30 65 24 22 -4 50 -12 61 -17 11 -5 1 8 -22 31 -24
22 -43 49 -43 59 0 25 -20 82 -28 82 -4 0 -19 -13 -34 -28z"/>
<path d="M7791 3286 c2 -2 15 -9 29 -16 23 -12 24 -12 11 3 -7 10 -20 17 -29
17 -8 0 -13 -2 -11 -4z"/>
<path d="M8071 3240 c0 -3 8 -32 19 -65 12 -33 18 -46 16 -29 -5 29 -33 106
-35 94z"/>
<path d="M8120 3199 c0 -12 29 -69 35 -69 3 0 5 9 5 21 0 13 -4 18 -12 13 -7
-5 -9 0 -6 14 4 13 0 23 -8 26 -8 3 -14 1 -14 -5z"/>
<path d="M6025 3176 c-41 -34 -57 -50 -78 -80 -19 -27 -59 -34 -101 -17 -36
14 -140 -22 -175 -60 l-31 -34 34 -30 c18 -16 50 -43 70 -59 21 -15 42 -41 48
-56 6 -19 27 -38 70 -60 l60 -32 38 21 c57 32 71 25 20 -9 -25 -16 -50 -30
-57 -30 -15 0 -101 47 -125 68 -10 8 -18 21 -18 28 0 18 -61 74 -81 74 -9 0
-22 -13 -29 -29 -9 -24 -9 -40 3 -83 8 -30 15 -94 15 -147 0 -92 -1 -93 -34
-128 -38 -39 -47 -32 -10 8 23 24 24 32 21 135 -1 60 -8 122 -14 138 -11 28
-12 28 -37 11 -18 -12 -43 -16 -82 -14 -66 3 -143 -8 -189 -27 -25 -11 -49
-12 -110 -4 -171 23 -157 23 -170 -9 -6 -16 -8 -50 -6 -74 4 -29 1 -47 -7 -52
-10 -6 -11 9 -8 64 2 39 0 71 -3 71 -16 0 -87 -83 -129 -151 -25 -40 -74 -102
-109 -137 l-63 -65 11 -56 c5 -31 13 -73 16 -93 7 -48 36 -117 42 -100 3 6 12
12 20 12 15 0 15 -2 1 -17 -11 -12 -13 -25 -8 -38 13 -31 11 -108 -4 -134 -22
-39 -9 -167 22 -220 14 -25 27 -61 27 -80 4 -92 30 -172 43 -133 2 7 8 10 13
7 19 -12 98 -16 117 -6 12 6 21 24 24 48 7 45 51 145 73 163 9 7 15 30 16 54
2 78 8 87 78 108 67 21 124 55 115 70 -3 5 0 7 6 6 7 -2 16 4 20 12 14 26 33
127 26 139 -9 13 14 81 27 81 8 0 5 -41 -9 -157 l-5 -42 28 8 c97 29 123 54
123 115 0 25 -4 47 -9 50 -13 8 -24 111 -16 154 4 21 21 55 41 77 35 41 36 22
1 -26 -26 -36 -32 -97 -14 -139 l15 -35 10 25 c5 14 37 55 71 92 34 36 61 71
61 77 0 6 5 11 10 11 6 0 10 -4 10 -10 0 -16 36 -11 52 8 9 9 23 31 32 48 10
20 33 40 62 55 39 18 51 31 68 71 23 55 41 64 31 16 -13 -58 -34 -87 -83 -112
-27 -14 -55 -38 -66 -56 -27 -48 -53 -70 -79 -70 -27 0 -78 -51 -131 -132 -35
-52 -38 -61 -31 -105 6 -45 4 -50 -27 -80 -18 -17 -52 -39 -75 -48 -24 -10
-43 -22 -43 -27 0 -5 -6 -8 -12 -5 -23 8 -49 -13 -43 -34 4 -11 2 -19 -4 -19
-6 0 -11 -21 -11 -50 0 -65 -15 -96 -54 -107 -23 -6 -36 -19 -50 -51 -13 -29
-28 -45 -45 -49 -13 -3 -36 -12 -50 -19 -14 -8 -33 -14 -41 -14 -12 0 -12 -2
-2 -9 11 -7 11 -9 -2 -14 -8 -3 -17 -1 -19 6 -2 7 -10 -14 -17 -45 -11 -48
-18 -59 -42 -69 -18 -7 -25 -15 -18 -19 7 -4 11 -10 11 -14 -3 -20 1 -26 17
-27 21 -1 -28 -16 -83 -24 -59 -10 -25 -21 85 -29 147 -10 294 -29 301 -39 4
-5 37 -6 75 -1 52 5 64 9 49 16 -13 5 0 7 36 3 36 -3 69 0 90 9 19 7 63 17 99
21 36 4 72 8 80 10 100 19 149 16 64 -4 l-39 -9 57 -1 c57 -1 158 16 168 28 3
3 14 11 25 17 11 6 20 22 20 34 0 29 44 62 83 64 17 1 28 4 25 9 -2 4 6 7 19
8 13 0 31 3 40 5 49 13 81 16 87 7 3 -6 20 -13 36 -17 22 -5 26 -4 15 4 -8 5
-10 10 -5 11 46 4 149 37 125 39 -10 1 -7 5 8 12 12 6 22 15 22 19 0 13 60 41
75 36 7 -3 18 0 24 6 13 13 101 17 101 5 0 -4 21 -6 47 -4 43 3 45 3 22 -10
-13 -7 -19 -13 -13 -14 10 0 53 29 81 56 6 6 39 10 75 9 34 -1 71 1 80 6 10 6
19 5 23 -1 3 -5 17 -10 31 -10 13 0 24 -5 24 -11 0 -5 5 -7 10 -4 6 3 10 26
10 50 0 44 1 45 68 90 120 81 117 74 72 150 -16 28 -30 64 -30 82 0 40 -21
134 -33 151 -5 6 -20 12 -34 12 -13 0 -38 7 -54 16 -34 17 -59 13 -59 -10 0
-8 -4 -17 -9 -21 -13 -7 -92 33 -111 57 -10 12 -33 19 -72 23 -37 3 -72 13
-95 28 -21 13 -60 27 -87 30 -47 7 -48 6 -42 -16 19 -71 18 -242 -2 -223 -3 4
-7 44 -8 89 -1 95 -18 205 -33 220 -6 6 -11 26 -11 45 0 18 -5 42 -10 53 -12
21 -36 26 -42 8 -2 -6 -33 -13 -68 -16 -36 -3 -72 -11 -80 -18 -8 -7 -27 -15
-41 -19 -32 -7 -39 -28 -39 -123 0 -43 -4 -73 -11 -75 -6 -2 -13 -25 -16 -51
-3 -26 -10 -50 -14 -53 -5 -3 -9 -16 -9 -30 0 -14 -4 -23 -9 -19 -6 3 -6 -6
-1 -25 5 -16 7 -45 4 -64 -3 -27 2 -42 22 -66 21 -24 27 -42 29 -91 1 -39 -3
-62 -10 -67 -7 -4 -18 -41 -25 -82 -9 -53 -15 -69 -20 -55 -8 21 5 223 14 232
3 3 -5 20 -17 37 -12 17 -32 52 -44 79 -23 50 -31 54 -66 35 -34 -18 -61 -58
-80 -120 -10 -32 -22 -58 -27 -58 -14 0 -12 31 5 60 8 14 14 28 15 32 0 13
-73 -32 -110 -67 -24 -22 -49 -35 -79 -40 -31 -5 -42 -4 -37 4 4 6 20 11 36
11 21 0 39 11 67 41 21 22 53 47 72 55 18 8 55 37 82 64 27 28 54 50 62 50 41
0 94 101 117 223 l12 68 -50 53 c-38 40 -55 68 -68 112 -9 33 -27 71 -39 85
-35 43 -50 88 -37 110 14 22 15 53 3 77 -53 100 -62 126 -56 162 3 21 8 64 9
97 2 32 6 69 10 81 9 28 8 27 -29 -2z m-942 -616 c24 -14 44 -19 61 -14 16 4
26 2 26 -5 0 -15 -85 -14 -109 1 -20 12 -22 12 -96 -30 -34 -19 -53 -37 -60
-57 -9 -29 -48 -75 -61 -75 -4 0 -13 -8 -20 -17 -9 -12 -13 -14 -14 -5 0 7 14
26 30 41 17 15 39 43 48 62 9 19 31 41 48 50 18 8 46 27 64 42 38 32 40 32 83
7z m633 -65 c16 -40 17 -45 5 -45 -8 0 -31 52 -31 71 0 19 12 7 26 -26z m-296
-519 c0 -3 -4 -8 -10 -11 -5 -3 -10 -1 -10 4 0 6 5 11 10 11 6 0 10 -2 10 -4z"/>
<path d="M7926 3173 c11 -20 26 -33 38 -33 11 0 16 3 11 8 -6 4 -23 18 -39 32
l-29 25 19 -32z"/>
<path d="M4920 3150 c-11 -22 -18 -40 -15 -40 2 0 14 18 25 40 11 22 18 40 15
40 -2 0 -14 -18 -25 -40z"/>
<path d="M7671 3176 c-16 -9 -20 -15 -12 -21 7 -4 16 -18 21 -31 5 -13 17 -24
25 -24 14 0 13 5 -5 27 -19 24 -20 29 -6 39 33 24 16 31 -23 10z"/>
<path d="M7710 3151 c0 -33 40 -81 67 -81 15 0 14 2 -5 16 -12 8 -22 21 -22
28 0 7 -9 21 -20 31 -13 11 -20 14 -20 6z"/>
<path d="M3275 3139 c-4 -6 -5 -12 -2 -15 2 -3 7 2 10 11 7 17 1 20 -8 4z"/>
<path d="M7996 3125 c4 -8 12 -15 20 -15 20 0 17 7 -6 20 -16 9 -18 8 -14 -5z"/>
<path d="M5320 3110 c-14 -11 -32 -20 -40 -20 -8 0 -33 -9 -55 -20 -22 -11
-45 -19 -51 -20 -12 0 -64 -55 -81 -86 -9 -17 -7 -33 10 -84 18 -51 28 -66 57
-81 39 -22 158 -26 192 -8 11 6 63 13 116 15 54 3 107 7 119 10 19 4 83 77 83
96 0 4 -16 23 -35 43 -26 26 -44 35 -68 35 -23 0 -46 11 -79 39 -26 21 -58 41
-71 45 -13 3 -29 17 -37 31 -16 30 -27 31 -60 5z"/>
<path d="M7519 3090 c-31 -35 -26 -40 8 -8 l24 22 67 -23 c37 -13 72 -27 77
-31 24 -16 44 -19 38 -4 -3 7 -11 14 -18 14 -7 0 -45 14 -85 30 -40 17 -76 30
-79 30 -3 -1 -18 -14 -32 -30z"/>
<path d="M5135 3084 c-9 -15 -12 -23 -6 -20 11 7 35 46 28 46 -3 0 -12 -12
-22 -26z"/>
<path d="M8150 3093 c0 -17 17 -32 43 -38 36 -9 35 6 -2 28 -32 19 -41 21 -41
10z"/>
<path d="M8240 3082 c0 -12 19 -26 26 -19 2 2 -2 10 -11 17 -9 8 -15 8 -15 2z"/>
<path d="M3276 3067 c3 -10 9 -15 12 -12 3 3 0 11 -7 18 -10 9 -11 8 -5 -6z"/>
<path d="M4801 3064 c0 -11 3 -14 6 -6 3 7 2 16 -1 19 -3 4 -6 -2 -5 -13z"/>
<path d="M7214 3057 c-25 -19 -33 -42 -11 -34 6 2 11 10 9 17 -2 8 3 10 14 6
42 -16 68 -17 110 -6 57 16 46 27 -34 32 -52 4 -68 1 -88 -15z"/>
<path d="M7458 3053 c7 -3 16 -2 19 1 4 3 -2 6 -13 5 -11 0 -14 -3 -6 -6z"/>
<path d="M8000 3046 c9 -12 15 -14 20 -5 6 8 10 8 16 -2 4 -7 3 -14 -4 -17 -6
-2 -8 -10 -5 -19 5 -14 1 -15 -28 -9 -96 22 -124 24 -239 19 -122 -6 -210 -21
-128 -22 27 -1 44 -8 63 -28 14 -15 25 -31 25 -35 0 -4 8 -5 18 -2 14 5 15 4
2 -5 -13 -10 -11 -15 15 -36 17 -14 49 -41 72 -61 28 -23 44 -46 48 -67 4 -18
12 -40 20 -50 12 -17 16 -17 49 -3 24 10 36 21 36 35 0 11 4 22 9 25 4 3 11
23 14 44 4 22 21 54 40 77 33 39 82 151 69 159 -4 2 -34 7 -67 11 -54 6 -58 6
-45 -9z m90 -46 c0 -5 -7 -10 -16 -10 -8 0 -12 5 -9 10 3 6 10 10 16 10 5 0 9
-4 9 -10z m-45 -69 c-3 -5 -18 -7 -32 -5 -41 8 -41 14 1 14 20 0 35 -4 31 -9z"/>
<path d="M7800 3040 c-13 -8 -13 -10 2 -10 9 0 20 5 23 10 8 13 -5 13 -25 0z"/>
<path d="M8280 3032 c6 -13 14 -21 18 -18 3 4 -2 14 -12 24 -18 16 -18 16 -6
-6z"/>
<path d="M8237 3012 c3 -12 11 -23 19 -26 20 -8 17 8 -5 28 -19 17 -19 17 -14
-2z"/>
<path d="M4780 2995 c-7 -8 -8 -15 -2 -15 5 0 15 7 22 15 7 8 8 15 2 15 -5 0
-15 -7 -22 -15z"/>
<path d="M8300 2999 c0 -4 7 -24 16 -45 10 -24 14 -52 10 -78 -7 -47 30 -152
59 -169 25 -14 27 -3 5 26 -12 15 -23 36 -25 47 -2 11 -7 25 -10 30 -3 6 1 10
10 10 25 0 10 99 -20 125 -12 11 -27 29 -33 40 -6 11 -12 17 -12 14z"/>
<path d="M6820 2951 c-12 -17 -18 -31 -14 -31 4 0 -1 -9 -11 -20 -10 -11 -14
-20 -8 -20 15 0 40 31 53 64 15 40 6 43 -20 7z"/>
<path d="M8121 2963 c0 -12 -21 -45 -46 -74 -33 -39 -47 -66 -56 -108 -8 -42
-20 -64 -45 -87 l-33 -31 28 -27 c17 -17 31 -43 35 -65 8 -50 63 -121 94 -121
39 0 76 -29 102 -78 28 -51 48 -61 140 -66 l55 -3 2 61 c1 54 0 58 -13 41 -12
-16 -14 0 -14 127 0 90 -4 149 -10 153 -6 4 -20 28 -31 53 -11 26 -24 54 -29
62 -4 9 -5 34 -1 55 4 22 3 55 -3 73 -9 30 -12 32 -53 30 -24 -1 -47 -6 -50
-11 -3 -6 9 -8 31 -5 20 2 36 0 36 -4 0 -4 -29 -8 -64 -8 -63 0 -65 1 -69 28
-3 20 -4 22 -6 5z"/>
<path d="M4675 2863 l-30 -14 30 6 c31 7 41 12 34 19 -2 2 -17 -3 -34 -11z"/>
<path d="M5067 2842 c-24 -26 -21 -32 13 -32 31 0 35 6 24 34 -8 21 -17 20
-37 -2z"/>
<path d="M5007 2791 c-37 -45 -34 -63 4 -24 17 17 30 36 27 43 -2 8 -14 0 -31
-19z"/>
<path d="M4651 2715 c-29 -49 -64 -104 -76 -121 -13 -17 -38 -55 -55 -84 -30
-51 -31 -58 -33 -177 -2 -122 -2 -123 20 -120 12 2 25 5 28 8 3 3 6 57 6 119
0 97 3 117 20 139 11 14 26 35 34 46 8 11 26 34 39 50 13 17 26 47 30 69 4 21
16 51 27 66 14 18 19 39 17 61 -3 33 -4 32 -57 -56z"/>
<path d="M4221 2704 c0 -11 3 -14 6 -6 3 7 2 16 -1 19 -3 4 -6 -2 -5 -13z"/>
<path d="M8430 2708 c0 -9 7 -19 16 -22 15 -6 15 -4 3 11 -7 10 -15 20 -16 22
-2 2 -3 -3 -3 -11z"/>
<path d="M8410 2655 c0 -5 5 -17 10 -25 5 -8 10 -10 10 -5 0 6 -5 17 -10 25
-5 8 -10 11 -10 5z"/>
<path d="M4450 2640 c-13 -8 -13 -10 2 -10 9 0 20 5 23 10 8 13 -5 13 -25 0z"/>
<path d="M8463 2633 c22 -25 67 -138 68 -172 1 -26 1 -26 7 -3 9 31 25 32 37
5 12 -29 25 -30 25 -2 0 11 -4 17 -10 14 -5 -3 -10 -1 -10 6 0 7 -12 26 -27
41 -15 15 -38 49 -52 75 -14 26 -33 49 -41 51 -12 4 -11 1 3 -15z"/>
<path d="M4420 2599 c0 -5 5 -7 10 -4 6 3 10 8 10 11 0 2 -4 4 -10 4 -5 0 -10
-5 -10 -11z"/>
<path d="M8442 2590 c25 -40 50 -129 46 -160 -2 -16 -1 -27 4 -24 24 15 -13
166 -49 196 -15 12 -15 11 -1 -12z"/>
<path d="M8520 2601 c0 -5 7 -12 16 -15 14 -5 15 -4 4 9 -14 17 -20 19 -20 6z"/>
<path d="M8825 2459 c-4 -6 -4 -13 -1 -16 3 -4 6 -1 6 5 0 20 28 13 44 -10 18
-25 21 -17 6 13 -12 20 -45 26 -55 8z"/>
<path d="M8625 2419 c11 -7 22 -15 25 -19 10 -13 37 -18 50 -10 9 6 3 11 -21
18 -19 5 -43 13 -54 17 l-20 7 20 -13z"/>
<path d="M8830 2423 c0 -6 8 -17 18 -24 16 -13 16 -13 2 6 -8 11 -16 22 -17
24 -2 2 -3 0 -3 -6z"/>
<path d="M8715 2381 c-3 -6 0 -11 9 -11 8 0 17 -6 20 -12 3 -7 5 -4 3 6 -2 22
-22 32 -32 17z"/>
<path d="M8491 2314 c0 -11 3 -14 6 -6 3 7 2 16 -1 19 -3 4 -6 -2 -5 -13z"/>
<path d="M8825 2310 l-30 -8 31 -1 c16 0 45 -12 64 -26 42 -31 49 -32 24 -3
-22 27 -47 48 -54 46 -3 0 -18 -4 -35 -8z"/>
<path d="M3935 2259 c22 -10 47 -18 55 -18 8 0 -3 9 -25 20 -22 10 -47 18 -55
18 -8 0 3 -9 25 -20z"/>
<path d="M4020 2250 c-12 -8 -10 -10 8 -10 13 0 20 4 17 10 -7 12 -6 12 -25 0z"/>
<path d="M4441 2244 c0 -12 7 -28 17 -35 15 -12 16 -12 6 1 -7 8 -14 24 -17
35 -4 19 -5 19 -6 -1z"/>
<path d="M4126 2242 c-3 -6 -2 -13 4 -17 5 -3 10 -3 11 2 0 4 9 -10 20 -32 14
-30 19 -35 19 -18 0 27 -44 81 -54 65z"/>
<path d="M4080 2229 c0 -5 5 -7 10 -4 6 3 10 8 10 11 0 2 -4 4 -10 4 -5 0 -10
-5 -10 -11z"/>
<path d="M4190 2151 c0 -6 18 -11 43 -11 23 0 58 -4 77 -10 29 -8 32 -8 20 4
-19 18 -140 33 -140 17z"/>
<path d="M4402 2140 c-12 -5 -30 -7 -40 -4 -9 3 -6 -2 8 -10 36 -22 59 -20 57
4 -1 11 -1 20 -2 19 0 0 -10 -4 -23 -9z"/>
<path d="M4445 2119 c2 -18 4 -37 4 -41 1 -5 6 -8 11 -8 6 0 8 11 4 28 -11 45
-22 59 -19 21z"/>
<path d="M8835 2107 c-11 -8 -14 -16 -8 -20 6 -4 18 2 28 13 21 23 8 27 -20 7z"/>
<path d="M9151 2041 c-9 -6 -10 -11 -2 -15 13 -8 31 1 31 15 0 11 -11 11 -29
0z"/>
<path d="M4407 2015 c-4 -8 -13 -15 -21 -15 -8 0 -17 -4 -20 -9 -3 -4 6 -6 20
-3 24 4 43 27 31 38 -2 3 -7 -2 -10 -11z"/>
<path d="M9190 2000 c0 -6 7 -10 15 -10 8 0 15 2 15 4 0 2 -7 6 -15 10 -8 3
-15 1 -15 -4z"/>
<path d="M4257 1962 c6 -24 -25 -52 -36 -33 -6 9 -11 1 -15 -23 -8 -42 -2 -56
24 -56 11 0 31 -5 45 -12 20 -9 31 -8 49 2 14 7 34 10 45 7 24 -6 28 12 9 46
-6 12 -15 36 -19 52 l-7 30 -1 -27 c-1 -21 -6 -28 -22 -28 -11 0 -29 -5 -40
-10 -17 -10 -19 -7 -19 30 0 22 -4 40 -9 40 -5 0 -7 -8 -4 -18z m-17 -82 c0
-11 -4 -20 -9 -20 -14 0 -23 18 -16 30 10 17 25 11 25 -10z"/>
<path d="M5310 1920 c-21 -19 -46 -30 -65 -30 -16 0 -35 -4 -41 -8 -15 -10
-33 -67 -25 -80 4 -6 6 -31 6 -55 -1 -44 -1 -45 26 -35 16 5 32 22 39 39 14
32 58 69 83 69 18 0 26 42 15 83 -4 16 -3 25 3 22 5 -4 9 1 9 9 0 22 -10 19
-50 -14z"/>
<path d="M9151 1925 c-18 -8 -56 -15 -85 -16 -28 0 -60 -4 -71 -8 -20 -8 -19
-8 2 -15 14 -4 23 -17 25 -34 3 -26 5 -27 78 -32 98 -7 119 -3 113 21 -6 20
-15 24 -81 34 -60 10 -41 22 40 27 37 2 70 7 74 11 22 21 -53 31 -95 12z"/>
<path d="M8461 1907 c-8 -20 -4 -23 40 -30 29 -5 61 -5 77 1 l27 9 -37 16
c-65 27 -98 29 -107 4z"/>
<path d="M8825 1859 c-27 -4 -118 -8 -202 -8 -152 -1 -183 -5 -183 -23 0 -5 4
-7 9 -4 5 4 11 3 13 -1 1 -5 20 -16 41 -25 46 -22 132 -23 242 -3 92 17 132
19 137 6 2 -4 12 -5 23 0 19 7 19 8 1 8 -14 1 -16 4 -7 14 8 11 7 17 -7 28
-13 11 -30 13 -67 8z"/>
<path d="M4010 1847 c0 -9 -9 -19 -20 -22 -30 -10 -24 -23 13 -29 263 -39 377
-42 377 -11 0 14 -12 17 -105 29 -22 3 -62 12 -90 19 -27 8 -78 18 -112 22
-53 6 -63 5 -63 -8z"/>
<path d="M9830 1823 c14 -2 30 -10 35 -16 6 -7 45 -13 98 -14 83 -1 109 4 55
12 -12 2 -54 8 -93 14 -38 6 -81 10 -95 9 l-25 -1 25 -4z"/>
<path d="M9725 1810 l-30 -8 35 -1 c19 0 42 4 50 9 12 8 11 10 -5 9 -11 -1
-33 -5 -50 -9z"/>
<path d="M9120 1783 c-19 -2 -60 -11 -90 -20 -30 -8 -80 -19 -110 -24 -64 -9
-130 -35 -130 -49 0 -6 -7 -10 -16 -10 -8 0 -13 -4 -9 -9 3 -5 -3 -11 -12 -14
-14 -3 -11 -7 12 -17 18 -8 80 -15 159 -17 134 -3 166 -8 166 -24 0 -16 36 -9
55 11 9 10 38 27 64 37 25 9 48 20 51 23 3 4 12 10 20 13 8 3 -12 6 -45 6 -33
1 -67 5 -75 11 -29 18 21 23 194 18 190 -6 369 9 426 36 34 16 32 16 -90 11
-69 -4 -186 -2 -260 4 -225 17 -274 19 -310 14z"/>
<path d="M8798 1773 c6 -2 18 -2 25 0 6 3 1 5 -13 5 -14 0 -19 -2 -12 -5z"/>
<path d="M5155 1739 c-11 -17 1 -21 15 -4 8 9 8 15 2 15 -6 0 -14 -5 -17 -11z"/>
<path d="M3880 1580 c-14 -4 -20 -8 -14 -9 6 -1 16 -12 22 -25 11 -24 11 -24
74 -10 35 7 117 14 183 15 l120 2 -110 9 c-60 4 -123 13 -139 18 -34 12 -100
12 -136 0z"/>
<path d="M8518 1543 c-21 -2 -38 -9 -38 -14 0 -6 -10 -8 -22 -4 -21 6 -22 5
-6 -8 10 -8 15 -17 12 -20 -20 -20 180 -20 234 0 20 8 21 11 9 27 -10 14 -29
19 -83 21 -38 2 -86 1 -106 -2z"/>
<path d="M6458 1523 c-14 -2 -32 -11 -40 -20 -12 -15 -9 -16 27 -10 22 4 52 7
66 7 14 0 34 7 45 15 18 13 16 14 -26 13 -25 0 -57 -3 -72 -5z"/>
<path d="M7248 1523 c12 -2 32 -2 45 0 12 2 2 4 -23 4 -25 0 -35 -2 -22 -4z"/>
<path d="M8280 1510 c0 -13 11 -13 30 0 12 8 11 10 -7 10 -13 0 -23 -4 -23
-10z"/>
<path d="M3555 1468 c-22 -5 -60 -12 -85 -15 -53 -6 -71 -18 -41 -28 24 -7
231 31 246 46 12 12 -66 10 -120 -3z"/>
<path d="M7675 1462 c-37 -11 -61 -23 -61 -32 -1 -8 -2 -21 -3 -28 -1 -16 -80
-9 -91 8 -9 15 -40 1 -33 -16 3 -10 -2 -14 -18 -14 -19 -1 -13 -7 26 -27 46
-24 56 -25 140 -20 49 3 124 2 165 -3 41 -5 102 -12 135 -16 33 -4 62 -11 65
-15 7 -10 284 -32 308 -25 25 8 23 117 -1 144 -24 26 -74 33 -116 16 -18 -8
-43 -14 -54 -14 -35 0 -107 -40 -107 -60 0 -10 -7 -21 -16 -24 -22 -9 -24 -8
-24 9 0 8 -7 15 -16 15 -22 0 -10 14 42 49 45 30 46 31 23 40 -13 5 -81 11
-151 15 -69 3 -132 8 -140 10 -7 3 -40 -3 -73 -12z"/>
<path d="M8867 1471 c-67 -14 -51 -20 51 -18 55 1 95 5 89 9 -21 11 -101 17
-140 9z"/>
<path d="M9050 1443 c14 -3 31 -9 37 -15 7 -6 21 -7 30 -3 15 7 13 9 -12 15
-16 4 -41 8 -55 7 l-25 0 25 -4z"/>
<path d="M5997 1386 c-6 -15 -17 -16 -80 -10 -52 5 -90 2 -135 -10 -35 -9
-103 -16 -150 -16 -104 -1 -165 -13 -192 -40 -11 -11 -20 -23 -20 -26 0 -3
-10 -14 -22 -25 -19 -15 -20 -18 -6 -19 23 0 34 -20 17 -31 -10 -6 -8 -9 10
-9 19 0 21 -3 12 -14 -18 -21 84 -41 144 -28 106 23 275 -7 291 -52 11 -34 10
-50 -4 -65 -19 -20 -5 -27 16 -8 10 10 28 17 38 17 11 0 38 16 60 35 21 19 42
35 47 35 4 0 7 5 7 11 0 11 -12 10 -55 -6 -11 -4 -5 2 13 14 18 12 32 27 31
34 -1 6 -1 17 0 24 1 17 94 43 150 43 42 0 78 11 70 21 -5 5 27 50 32 46 2 -1
3 0 1 2 -7 13 36 41 64 41 38 0 90 18 80 27 -3 4 -39 8 -79 10 -39 1 -131 5
-203 9 -117 6 -131 5 -137 -10z m-287 -166 c0 -5 -13 -10 -29 -10 -17 0 -33 5
-36 10 -4 6 8 10 29 10 20 0 36 -4 36 -10z m137 -56 c-3 -3 -12 -4 -19 -1 -8
3 -5 6 6 6 11 1 17 -2 13 -5z"/>
<path d="M5668 1383 c6 -2 18 -2 25 0 6 3 1 5 -13 5 -14 0 -19 -2 -12 -5z"/>
<path d="M6670 1347 c-3 -3 -23 -8 -45 -11 -22 -3 -65 -13 -95 -22 -30 -9 -75
-17 -100 -18 -25 -2 -65 -13 -90 -26 -39 -20 -42 -24 -25 -31 16 -6 13 -8 -15
-10 -71 -4 95 -18 205 -18 117 1 212 -8 221 -22 3 -5 12 -9 21 -9 32 0 144
-63 160 -91 21 -35 120 -80 183 -84 70 -4 109 -15 104 -29 -3 -7 12 -20 36
-31 34 -15 45 -16 61 -7 10 7 27 12 36 12 19 -1 53 -22 53 -34 0 -3 -8 -6 -17
-6 -15 0 -15 -2 -4 -9 8 -5 14 -23 14 -39 0 -28 1 -29 16 -13 9 10 41 25 71
34 30 9 74 21 98 28 23 7 42 18 42 26 0 16 11 16 141 2 100 -11 167 -35 162
-57 -2 -6 6 -14 17 -17 11 -4 20 -10 20 -15 0 -14 39 -32 52 -24 8 5 7 10 -4
18 -8 6 -20 21 -27 33 -23 45 -75 59 -346 97 -60 9 -128 20 -149 25 -22 6 -44
7 -49 4 -4 -3 -16 1 -25 9 -9 8 -33 15 -52 16 l-35 2 42 -21 c46 -23 50 -43 5
-30 -15 5 -63 16 -107 25 -137 29 -164 38 -190 64 -14 13 -25 28 -25 32 0 12
27 20 88 25 54 4 55 4 17 -5 -50 -13 -58 -22 -42 -44 8 -11 31 -20 60 -23 41
-5 47 -3 41 11 -5 13 -1 15 27 10 19 -4 41 -13 51 -21 14 -12 18 -12 29 0 9 9
22 12 39 7 37 -10 120 -3 139 12 26 22 98 58 114 58 25 0 9 34 -22 48 -26 11
-29 18 -30 64 0 28 -2 53 -4 54 -2 2 -49 16 -104 30 -69 18 -112 25 -136 20
-43 -8 -56 -34 -28 -58 12 -9 21 -26 21 -37 0 -14 11 -25 36 -36 20 -8 34 -20
32 -27 -6 -17 -64 -37 -108 -37 -34 0 -34 1 18 21 28 11 52 24 52 28 0 9 -55
30 -79 30 -9 0 -33 -5 -54 -11 -29 -8 -42 -18 -52 -42 -11 -26 -15 -29 -20
-14 -5 11 -18 17 -38 17 l-30 0 21 23 c23 25 29 57 11 57 -6 0 -25 15 -41 33
-28 29 -39 33 -107 40 -122 12 -256 19 -261 14z"/>
<path d="M4683 1301 c-17 -11 -49 -23 -70 -27 l-38 -7 33 -15 c30 -15 37 -14
100 8 83 28 102 38 102 50 0 18 -93 11 -127 -9z"/>
<path d="M7665 1299 c-85 -9 -95 -15 -95 -56 0 -29 5 -36 35 -49 23 -9 35 -21
35 -34 0 -11 4 -20 9 -20 4 0 6 11 4 25 -4 20 0 25 23 31 16 4 34 10 39 14 6
3 29 12 53 19 23 6 42 15 42 20 0 14 49 31 93 32 30 1 20 4 -33 10 -130 14
-144 15 -205 8z"/>
<path d="M8030 1262 c0 -4 12 -13 28 -19 56 -25 131 -34 247 -31 66 2 154 0
195 -4 94 -9 50 3 -110 31 -120 20 -360 36 -360 23z"/>
<path d="M9330 1255 c-7 -9 -11 -17 -9 -20 3 -2 10 5 17 15 14 24 10 26 -8 5z"/>
<path d="M3955 1250 c-13 -5 -14 -9 -5 -9 8 0 24 4 35 9 13 5 14 9 5 9 -8 0
-24 -4 -35 -9z"/>
<path d="M3875 1230 l-20 -9 20 0 c11 0 29 4 40 9 l20 9 -20 0 c-11 0 -29 -4
-40 -9z"/>
<path d="M4098 1233 c34 -2 90 -2 125 0 34 2 6 3 -63 3 -69 0 -97 -1 -62 -3z"/>
<path d="M3788 1203 c7 -3 16 -2 19 1 4 3 -2 6 -13 5 -11 0 -14 -3 -6 -6z"/>
<path d="M8680 1150 c-11 -7 -9 -11 13 -19 42 -16 52 -13 32 9 -20 23 -24 23
-45 10z"/>
<path d="M8276 714 c-4 -10 -1 -14 6 -12 15 5 23 28 10 28 -5 0 -13 -7 -16
-16z"/>
</g>
</svg>
